<svg width="123" height="60" viewBox="0 0 123 60" fill="none" xmlns="http://www.w3.org/2000/svg">
<mask id="path-1-inside-1_15_1221" fill="white">
<path d="M36.6386 60C36.4466 60 36.256 59.9986 36.0668 59.9957C36.0639 59.9957 36.0611 59.9957 36.0582 59.9957C35.8448 59.9929 35.6314 59.9872 35.4195 59.9815L35.3341 59.9786C35.1236 59.9715 34.9102 59.9644 34.6968 59.953C34.6925 59.953 34.6826 59.9516 34.6783 59.9516C33.7863 59.9089 32.8858 59.8334 32.0123 59.7294L31.9896 59.7266C30.8614 59.5913 29.7646 59.4033 28.7176 59.1697C28.7161 59.1697 28.7147 59.1698 28.7133 59.1683C27.413 58.8778 26.1654 58.509 25.0045 58.0718L24.9875 58.0661C22.1508 56.9952 19.7921 55.5084 17.9783 53.6443C17.9128 53.5773 17.8474 53.509 17.7819 53.4406C17.7009 53.3537 17.6226 53.2683 17.5444 53.1829C17.4633 53.0931 17.385 53.0006 17.3054 52.9094L17.2542 52.851C17.2101 52.7998 17.166 52.7485 17.1233 52.6972C16.9995 52.5477 16.8743 52.3868 16.7406 52.2102C16.705 52.1618 16.6695 52.1134 16.6339 52.0649L16.604 52.0222C16.5116 51.8955 16.4205 51.7659 16.3309 51.6349L16.3095 51.6035C16.2768 51.5551 16.2441 51.5067 16.2114 51.4583C16.072 51.2461 15.9582 51.0666 15.8529 50.8901C15.8515 50.8872 15.85 50.8858 15.8486 50.8829C15.8472 50.8815 15.8458 50.8787 15.8458 50.8772C15.8444 50.8744 15.8429 50.873 15.8415 50.8701C15.8387 50.8644 15.8358 50.8587 15.833 50.8545C15.7163 50.6565 15.6039 50.4628 15.4958 50.2706C15.4702 50.2236 15.4446 50.1766 15.419 50.1296L15.3479 50C15.2853 49.8861 15.2227 49.7721 15.1629 49.6596C15.133 49.6027 15.1032 49.5457 15.0747 49.4888L14.9936 49.3293C14.9453 49.2367 14.8983 49.1427 14.8514 49.0516C14.8201 48.9889 14.7902 48.9262 14.7617 48.865L14.6821 48.6984C14.6408 48.6144 14.601 48.5289 14.5612 48.4449C14.5299 48.378 14.5014 48.3124 14.4715 48.2455L14.4004 48.086C14.3634 48.0034 14.3264 47.9222 14.2909 47.8411C14.261 47.7713 14.2311 47.7015 14.2027 47.6317L14.1415 47.4836C14.1073 47.4024 14.0732 47.3213 14.0405 47.2401C14.0106 47.1675 13.9836 47.0948 13.9551 47.0222L13.9011 46.8841C13.8698 46.8043 13.8385 46.7246 13.81 46.6448C13.7816 46.5679 13.7545 46.4925 13.7275 46.4155L13.6806 46.286C13.6521 46.2076 13.6251 46.1293 13.5981 46.0524C13.5696 45.9712 13.544 45.8915 13.5184 45.8103L13.4785 45.6907C13.4544 45.6152 13.4288 45.5397 13.406 45.4643C13.3804 45.3831 13.3562 45.3033 13.3334 45.2222L13.2979 45.104C13.2751 45.0299 13.2538 44.9544 13.2324 44.8804C13.2068 44.7892 13.1826 44.6981 13.1585 44.6084L13.1385 44.5343C13.1172 44.4574 13.0973 44.3791 13.0774 44.3022C13.0532 44.2054 13.029 44.1085 13.0062 44.0117L12.9906 43.9476C12.9735 43.875 12.955 43.8009 12.9394 43.7283C12.9166 43.6272 12.8953 43.5261 12.8739 43.4264L12.8626 43.3737C12.8469 43.3025 12.8327 43.2298 12.8185 43.1586C12.7971 43.0533 12.7786 42.9479 12.7587 42.8425L12.7516 42.8169C12.7374 42.7428 12.7246 42.6673 12.7118 42.5933C12.6933 42.485 12.6776 42.3797 12.6605 42.2729L12.6577 42.2586C12.6463 42.1831 12.6349 42.1077 12.6236 42.0336C12.6079 41.9254 12.5937 41.8186 12.5809 41.7103L12.5766 41.6804C12.5681 41.6135 12.5595 41.5466 12.5524 41.4811C12.5396 41.3728 12.5282 41.2632 12.5183 41.1549L12.5169 41.135C12.5112 41.0695 12.5041 41.0026 12.4984 40.9371C12.4884 40.826 12.4799 40.7149 12.4728 40.6052C12.4671 40.5355 12.4628 40.4657 12.4585 40.3973C12.4514 40.2848 12.4457 40.1737 12.4415 40.0627C12.4386 39.9957 12.4358 39.9302 12.4329 39.8647C12.4287 39.7508 12.4258 39.6383 12.4244 39.5244C12.423 39.4617 12.423 39.399 12.4216 39.3364C12.4201 39.2224 12.4216 39.1071 12.4216 38.9932L12.4244 38.8194C12.4272 38.7012 12.4301 38.5844 12.4344 38.4691L12.4415 38.3082C12.4472 38.1885 12.4528 38.0704 12.46 37.9536L12.4699 37.8069C12.4785 37.6844 12.4884 37.5634 12.4984 37.4452L12.5112 37.3127C12.524 37.186 12.5368 37.0635 12.5496 36.9425L12.5638 36.8214C12.5795 36.6961 12.5951 36.5722 12.6136 36.4483L12.6293 36.3443C12.6477 36.2162 12.6677 36.0894 12.689 35.9641L12.7046 35.873C12.7274 35.742 12.7502 35.6138 12.7758 35.4856L12.7914 35.4087C12.817 35.2791 12.8441 35.1481 12.8739 35.0171L12.8867 34.9601C12.918 34.8234 12.9493 34.6881 12.9821 34.5557L12.9892 34.5286C13.0262 34.3791 13.0617 34.2424 13.1001 34.1057C13.1016 34.1014 13.1044 34.0886 13.1058 34.0843C13.1442 33.9433 13.1841 33.8052 13.2267 33.667C13.2267 33.6642 13.2282 33.6628 13.2282 33.6599C13.2737 33.5104 13.3206 33.3623 13.3676 33.2156C13.369 33.2113 13.3704 33.2056 13.3733 33.1999C13.4216 33.0533 13.4686 32.9151 13.5184 32.777C13.5212 32.7713 13.5227 32.7656 13.5255 32.7585C13.5739 32.6246 13.6251 32.4865 13.6777 32.3483C13.6791 32.3441 13.6863 32.327 13.6877 32.3227C13.736 32.1974 13.7901 32.0635 13.8442 31.9311C13.8456 31.9282 13.8499 31.9154 13.8513 31.9126C13.9068 31.7801 13.9622 31.6505 14.0177 31.5238C14.0191 31.5224 14.0234 31.5095 14.0248 31.5081C14.0832 31.3757 14.1415 31.2504 14.1998 31.1279C14.2012 31.1265 14.2069 31.1122 14.2083 31.1108C14.2709 30.9798 14.3293 30.8602 14.389 30.742L14.4032 30.7149C14.463 30.5953 14.5242 30.4799 14.5853 30.366L14.6053 30.329C14.6422 30.2606 14.6792 30.1908 14.7176 30.121C14.7063 30.1125 14.6949 30.1054 14.6835 30.0968L14.6323 30.0612C14.463 29.943 14.288 29.8134 14.1145 29.681L14.0647 29.6426C13.884 29.503 13.7119 29.3663 13.5497 29.231C13.5468 29.2281 13.5355 29.2182 13.5312 29.2153C13.1826 28.9234 12.8426 28.6144 12.5197 28.2954L12.5055 28.2825C12.349 28.1273 12.1925 27.9664 12.0374 27.7998L12.0118 27.7713C11.9962 27.7542 11.9805 27.7385 11.9649 27.7214C11.4001 27.7428 10.824 27.7414 10.2421 27.7157C8.43966 27.6374 6.90182 27.3683 5.67411 26.9168C5.66842 26.914 5.65704 26.9111 5.6485 26.9069C3.5089 26.1122 2.81751 24.9644 2.61265 24.1398C2.40637 23.3082 2.62261 22.4566 3.2073 21.8029C4.2643 20.6209 5.36398 19.9829 5.68549 19.812C5.87612 19.6867 6.72257 19.1171 7.68853 18.237C7.65438 17.9009 7.6302 17.5619 7.61597 17.2244L7.61028 17.0906C7.60317 16.8841 7.60032 16.7089 7.60032 16.5423C7.60032 16.538 7.60032 16.5323 7.60032 16.5281C7.60032 13.4976 8.42686 10.534 9.99173 7.95642C10.06 7.84249 10.1311 7.72999 10.2023 7.61891C10.3445 7.39675 10.4953 7.17459 10.6476 6.95956C10.8766 6.63771 11.1199 6.32014 11.3717 6.01396C11.5395 5.81031 11.7131 5.60951 11.8909 5.41441C12.1569 5.12247 12.4358 4.83623 12.7203 4.56423C12.9109 4.38194 13.1087 4.20251 13.3064 4.03019C13.406 3.94332 13.507 3.85787 13.608 3.77385C14.0149 3.43777 14.4417 3.11735 14.8784 2.82256C15.3166 2.52635 15.7746 2.24722 16.2398 1.99516C16.5912 1.80433 16.9526 1.62489 17.3153 1.4597C17.5586 1.35004 17.8076 1.24466 18.0565 1.1464C19.9841 0.38593 22.0213 0 24.1111 0C24.2833 0 24.454 0.00284839 24.6233 0.00854477L24.7727 0.0142407C24.9007 0.0199371 25.0287 0.025634 25.1568 0.0341785L25.2976 0.0427228C25.4669 0.0541155 25.6376 0.0683564 25.8055 0.0854455C25.8112 0.0854455 25.8183 0.0868697 25.8254 0.0882938C25.989 0.105383 26.1497 0.12532 26.3105 0.146682L26.4385 0.165195C26.5737 0.183708 26.7088 0.20507 26.8425 0.227855L26.9507 0.246368C27.1712 0.284819 27.4031 0.33039 27.6349 0.380233C27.7431 0.403019 27.8498 0.427228 27.9565 0.454286L28.0461 0.475648C28.194 0.512674 28.342 0.549701 28.4885 0.591L28.5483 0.606664C28.8755 0.697807 29.2126 0.80319 29.5441 0.918542L29.5953 0.937055C30.0918 1.11222 30.5854 1.31302 31.062 1.53517C31.0634 1.5366 31.0762 1.5423 31.0777 1.5423C31.4575 1.71888 31.8359 1.91398 32.2015 2.12048C32.4007 2.23298 32.5999 2.35118 32.7948 2.47223C32.799 2.47508 32.8033 2.47793 32.8076 2.47935C33.378 2.83395 33.94 3.2327 34.4706 3.66135L34.4976 3.68414C34.6641 3.818 34.8348 3.96326 35.0012 4.10852C35.0041 4.11136 35.014 4.11991 35.0169 4.12276C35.354 4.41897 35.6827 4.73369 35.9942 5.05696C36.1507 5.21931 36.3001 5.38023 36.448 5.54828L36.485 5.58957C36.6287 5.75335 36.7709 5.91854 36.9032 6.08231L36.9217 6.1051C37.2006 6.44973 37.4666 6.80433 37.7156 7.16605L37.7469 7.2102C37.8635 7.38109 37.9802 7.5591 38.094 7.73996L38.1338 7.80547C38.2533 7.9963 38.36 8.17573 38.461 8.35374L38.4795 8.3865C38.5947 8.59015 38.6957 8.7767 38.7911 8.96041C38.7925 8.96326 38.7939 8.96611 38.7953 8.96753C38.8921 9.15551 38.9845 9.34492 39.0813 9.55283L39.1168 9.62973C39.2036 9.81771 39.2861 10.0085 39.3658 10.1994L39.4014 10.2848C39.4881 10.497 39.5621 10.6907 39.6304 10.8787L39.6446 10.9185C39.7158 11.1165 39.784 11.3173 39.8481 11.5181L39.8651 11.5694C39.9249 11.763 39.9832 11.961 40.043 12.1774L40.0714 12.2828C40.1255 12.4836 40.1738 12.6873 40.2194 12.8866L40.2407 12.9863C40.2905 13.2156 40.3317 13.4221 40.3673 13.6201L40.373 13.6585C40.4071 13.8536 40.4384 14.0601 40.4697 14.2823L40.4811 14.3691C40.5067 14.5671 40.5295 14.7736 40.5508 14.9986L40.5608 15.1182C40.5793 15.3361 40.5935 15.5497 40.602 15.7533L40.6063 15.8545C40.6163 16.1022 40.6205 16.323 40.6205 16.5281C40.6205 19.3649 39.9192 22.082 38.5734 24.5101C38.6218 24.513 38.6716 24.5172 38.7213 24.5215L39.1296 24.5557C39.2378 24.5657 39.3459 24.5742 39.4554 24.5856L39.5194 24.5913C39.6091 24.5998 39.7001 24.6084 39.7912 24.6183L39.8893 24.6283C39.9804 24.6383 40.0728 24.6468 40.1667 24.6568L40.2336 24.6639C40.3474 24.6767 40.4612 24.6895 40.5764 24.7024L40.6717 24.7138C40.7599 24.7237 40.8496 24.7351 40.9392 24.7465L41.0502 24.7608C41.1554 24.7736 41.2636 24.7878 41.3731 24.802L41.3959 24.8049C41.3987 24.8049 41.4087 24.8063 41.4115 24.8063C41.5324 24.822 41.6533 24.8391 41.7757 24.8562L42.2779 24.9288C42.4031 24.9473 42.5283 24.9672 42.6563 24.9872L42.6933 24.9929C42.8128 25.0114 42.9294 25.0313 43.0447 25.0498L43.167 25.0698C43.2652 25.0869 43.3633 25.104 43.4629 25.121L43.571 25.1396C43.7033 25.1638 43.8356 25.1866 43.9679 25.2108L44.0476 25.225C44.1586 25.2464 44.2681 25.2663 44.3791 25.2877L44.5057 25.3119C44.6138 25.3332 44.7219 25.3546 44.83 25.376L44.9254 25.3959C45.0619 25.4244 45.1999 25.4529 45.3393 25.4828L45.4418 25.5056C45.5513 25.5298 45.6608 25.5525 45.769 25.5782L45.8984 25.6067C46.0208 25.6337 46.1445 25.6622 46.2669 25.6921L46.3266 25.7064C46.4717 25.7405 46.6168 25.7761 46.7605 25.8103L46.8743 25.8388C46.9867 25.8673 47.0977 25.8943 47.2101 25.9228L47.3381 25.9556C47.4846 25.994 47.6326 26.0325 47.7805 26.0723C47.9768 26.125 48.1717 26.1735 48.3666 26.219L48.5359 26.2575C48.6839 26.2917 48.8318 26.323 48.9769 26.3529L49.1306 26.3842C49.3155 26.4212 49.499 26.454 49.6811 26.4853L49.8405 26.511C49.9728 26.5323 50.1036 26.5523 50.2345 26.5708C50.3057 26.5807 50.3782 26.5907 50.4493 26.5993C50.5717 26.6149 50.6926 26.6292 50.8121 26.642C50.8975 26.652 50.9857 26.6605 51.071 26.669C51.2062 26.6819 51.3399 26.6947 51.4722 26.7046C51.5618 26.7118 51.6515 26.7175 51.7411 26.7232C51.8207 26.7289 51.8976 26.7331 51.9758 26.736C52.0725 26.7402 52.1707 26.7459 52.2674 26.7488L52.4097 26.7531C52.6288 26.7588 52.8408 26.7616 53.0428 26.7602H53.1466C53.2661 26.7588 53.3856 26.7573 53.5037 26.7531L53.5649 26.7516C53.9504 26.7388 54.3317 26.716 54.7015 26.6819C57.6805 26.4056 59.9965 25.46 61.1701 24.6668C61.2171 24.6354 61.2612 24.6041 61.3053 24.5728L61.3309 24.5543C61.3693 24.5272 61.4034 24.5016 61.4362 24.4759L61.4803 24.4403C61.4817 24.4389 61.4931 24.4304 61.4945 24.4289C61.513 24.4147 61.5301 24.4005 61.5471 24.3862C61.577 24.3606 61.6083 24.3335 61.6382 24.3065C62.0934 23.8778 62.7165 23.7197 63.3069 23.8821C63.9841 24.0686 64.8632 24.6411 65.6599 27.438C65.7253 27.6688 65.7894 27.9109 65.8491 28.1586C65.9103 28.4093 65.9686 28.6699 66.0227 28.9348C66.1066 29.3406 66.182 29.7664 66.2503 30.198C66.32 30.6437 66.3797 31.1051 66.4295 31.5694C66.4637 31.8869 66.4935 32.2116 66.5177 32.5363C66.5832 33.3865 66.6145 34.2523 66.6116 35.1125C66.6102 35.4714 66.6031 35.8359 66.5903 36.1934C66.5704 36.7502 66.5348 37.3099 66.4864 37.8582C66.4523 38.237 66.411 38.6172 66.3641 38.9889C65.9899 41.9268 65.2089 44.6169 64.041 46.9823C63.2784 48.5275 62.3438 49.9416 61.264 51.182C61.1417 51.323 61.0065 51.4711 60.8529 51.6349C60.8216 51.669 60.7875 51.7032 60.7547 51.7374L60.7192 51.7744C60.621 51.877 60.52 51.9781 60.4162 52.0792C60.3635 52.1304 60.3109 52.1817 60.2582 52.2316C60.1544 52.3298 60.0505 52.4267 59.9438 52.5235L59.9026 52.5605C59.8656 52.5947 59.8286 52.6289 59.7902 52.6616C59.6536 52.7827 59.5156 52.9009 59.3734 53.0191L59.3108 53.0718C59.1515 53.2028 58.9879 53.3338 58.8072 53.4734C58.7716 53.5004 58.7346 53.5289 58.6976 53.556L58.6521 53.5901C58.5312 53.6813 58.4089 53.7739 58.2837 53.8636C58.2211 53.9091 58.1571 53.9547 58.093 54.0003C57.9735 54.0843 57.8526 54.1683 57.7303 54.2509L57.6847 54.2823C57.6364 54.315 57.588 54.3478 57.5396 54.3805C57.396 54.4759 57.2508 54.5699 57.1029 54.6625L57.0602 54.6895C57.0318 54.7081 57.0047 54.7251 56.9763 54.7437C56.7885 54.8604 56.5979 54.9758 56.4044 55.0897C56.366 55.1125 56.3276 55.1339 56.2892 55.1566L56.2323 55.1894C56.0928 55.2706 55.952 55.3503 55.8097 55.4286C55.74 55.4671 55.6703 55.5056 55.5992 55.544L55.585 55.5525C55.4541 55.6238 55.3232 55.6935 55.1909 55.7619L55.1696 55.7733C55.0984 55.8103 55.0287 55.8473 54.9576 55.8829C54.8139 55.9556 54.6688 56.0282 54.5223 56.0994L54.4554 56.1322C54.4127 56.1535 54.3701 56.1749 54.326 56.1948C54.1211 56.2931 53.9134 56.3899 53.7029 56.4853C53.6573 56.5067 53.6118 56.5266 53.5663 56.5466L53.4966 56.5779C53.3501 56.6434 53.2007 56.7089 53.0499 56.7744C52.9631 56.8114 52.8749 56.8485 52.7853 56.8855C52.6473 56.9439 52.5136 56.998 52.3798 57.0521C52.2845 57.0906 52.1892 57.129 52.0939 57.166C51.9573 57.2202 51.8179 57.2729 51.6799 57.3255L51.6059 57.354C51.5405 57.3797 51.475 57.4039 51.4082 57.4281C51.1919 57.5078 50.9743 57.5862 50.7552 57.6631C50.6997 57.683 50.6428 57.7015 50.5859 57.7214L50.4934 57.7528C50.3483 57.8026 50.2047 57.851 50.0581 57.898C49.9557 57.9308 49.8533 57.9635 49.7523 57.9963L49.7281 58.0034C49.6029 58.0433 49.4791 58.0817 49.3525 58.1202C49.2344 58.1558 49.1178 58.1914 49.0011 58.2256C48.8788 58.2612 48.7564 58.2968 48.6327 58.3324L48.5658 58.3509C48.4691 58.378 48.3723 58.4064 48.2756 58.4335C48.1646 58.4648 48.0522 58.4947 47.9399 58.5232L47.8787 58.5389C47.6653 58.5958 47.4519 58.65 47.2371 58.7041L47.1546 58.7254C47.0664 58.7468 46.9782 58.7696 46.8886 58.7909C46.7634 58.8208 46.6396 58.8493 46.5144 58.8778L46.4774 58.8864C46.3707 58.9106 46.264 58.9348 46.1573 58.959C46.0165 58.9903 45.8742 59.0202 45.732 59.0516C45.6295 59.0729 45.53 59.0928 45.429 59.1142C45.281 59.1441 45.1316 59.174 44.9837 59.2025C44.9325 59.2125 44.8798 59.2224 44.8286 59.231L44.7433 59.2467C44.3947 59.3122 44.049 59.372 43.7161 59.4261L43.5909 59.4474C43.4217 59.4745 43.2538 59.5001 43.0845 59.5243L42.8455 59.56C42.6791 59.5842 42.5112 59.6069 42.3419 59.6283L42.1129 59.6582C41.9379 59.681 41.7615 59.7024 41.5851 59.7223L41.4528 59.7365C40.8382 59.8049 40.2122 59.8604 39.5948 59.9032L39.4625 59.9117C39.2705 59.9245 39.077 59.9359 38.8849 59.9459L38.7327 59.953C38.535 59.963 38.3358 59.9715 38.1367 59.9786L38.0798 59.9801C37.5975 59.9929 37.1152 60 36.6386 60ZM36.1037 57.149C36.7226 57.1575 37.3542 57.1518 37.983 57.1304L38.0328 57.129C38.2192 57.1219 38.4055 57.1148 38.5905 57.1048L38.7313 57.0977C38.912 57.0877 39.0926 57.0778 39.2733 57.0664L39.3971 57.0578C39.9761 57.0179 40.5622 56.9652 41.1369 56.9012L41.2607 56.8883C41.4257 56.8698 41.5908 56.8499 41.7558 56.8285L41.9706 56.8015C42.1285 56.7801 42.285 56.7602 42.4415 56.7374L42.6648 56.7046C42.8227 56.6819 42.9806 56.6576 43.1386 56.632L43.2566 56.6121C43.5682 56.5608 43.8911 56.5053 44.2169 56.444L44.4431 56.4013C44.5839 56.3743 44.7233 56.3458 44.8613 56.3173C44.9552 56.2988 45.0505 56.2788 45.1444 56.2589C45.2767 56.2304 45.409 56.2019 45.5413 56.1735C45.6423 56.1507 45.7419 56.1279 45.8401 56.1051L45.8771 56.0965C45.9923 56.0695 46.109 56.0439 46.2242 56.0154C46.3039 55.9969 46.3835 55.9769 46.4646 55.9556L46.55 55.9342C46.7506 55.8844 46.9497 55.8331 47.1475 55.7804L47.2101 55.7633C47.3125 55.7363 47.4163 55.7092 47.5188 55.6807C47.607 55.6565 47.6938 55.6309 47.782 55.6067L47.8502 55.5867C47.9655 55.554 48.0793 55.5212 48.1917 55.487C48.3012 55.4543 48.4093 55.4215 48.5174 55.3888C48.6341 55.3532 48.7493 55.3161 48.866 55.2805L48.8902 55.2734C48.9841 55.2435 49.0794 55.2136 49.1733 55.1837C49.307 55.1396 49.4407 55.094 49.5744 55.0498L49.6783 55.0142C49.7252 54.9986 49.7708 54.9829 49.8177 54.9672C50.0211 54.896 50.2217 54.8248 50.4209 54.7508C50.4778 54.7294 50.5347 54.7081 50.5902 54.6867L50.6699 54.6568C50.7979 54.6084 50.9259 54.56 51.0511 54.5101C51.1393 54.4759 51.2261 54.4403 51.3129 54.4062C51.4352 54.3563 51.5576 54.3065 51.6785 54.2566C51.7667 54.2196 51.8478 54.1868 51.9274 54.1527C52.0654 54.0943 52.202 54.0345 52.3372 53.9732L52.5264 53.8892C52.7156 53.8038 52.9048 53.714 53.0926 53.6243L53.269 53.5375C53.4013 53.4734 53.5336 53.4079 53.663 53.3409C53.727 53.3082 53.7896 53.2754 53.8522 53.2427L53.8736 53.2313C53.9931 53.1686 54.1111 53.1059 54.2278 53.0433L54.242 53.0362C54.3046 53.002 54.3672 52.9678 54.4298 52.9336C54.5578 52.8624 54.683 52.7912 54.8082 52.7186L54.9619 52.6303C55.134 52.5292 55.3033 52.4267 55.4697 52.3227L55.5821 52.2501C55.7102 52.1689 55.8396 52.0863 55.9648 52.0023C56.0046 51.9752 56.0445 51.9482 56.0843 51.9211L56.1327 51.8884C56.2394 51.8157 56.3446 51.7431 56.4485 51.669C56.504 51.6292 56.5595 51.5907 56.6135 51.5508C56.7216 51.4725 56.8283 51.3928 56.9336 51.313L56.9905 51.2703C57.0161 51.2518 57.0417 51.2318 57.0659 51.2133C57.2224 51.0923 57.3618 50.9812 57.4955 50.8715L57.551 50.8246C57.6705 50.7249 57.7872 50.6252 57.9024 50.5226C57.9309 50.4984 57.9579 50.4728 57.9849 50.4486L58.0304 50.4073C58.1186 50.3275 58.2068 50.2464 58.2922 50.1638C58.3363 50.1225 58.3804 50.0798 58.4231 50.037C58.5084 49.9544 58.5909 49.8704 58.672 49.785L58.7176 49.7394C58.7389 49.7166 58.7617 49.6952 58.7816 49.6725C58.9096 49.5372 59.0177 49.4175 59.1159 49.3065C60.0349 48.2498 60.833 47.0421 61.4874 45.7163C62.5145 43.6343 63.2059 41.2489 63.5388 38.6257C63.5815 38.2882 63.6185 37.9436 63.6497 37.6004C63.6938 37.102 63.7266 36.5936 63.7451 36.0866C63.7564 35.7605 63.7636 35.4286 63.765 35.0997C63.7678 34.315 63.7394 33.5246 63.6796 32.7499C63.6569 32.4537 63.6298 32.1589 63.5985 31.8698C63.553 31.4497 63.499 31.0325 63.4364 30.6309C63.3766 30.2449 63.3083 29.8661 63.2343 29.5058C63.186 29.2737 63.1362 29.0459 63.0821 28.828C63.0309 28.6158 62.9769 28.4107 62.9214 28.2156C62.7948 27.7727 62.6724 27.4238 62.5643 27.1561C60.6651 28.3723 57.8469 29.2509 54.9619 29.5187C54.5351 29.5585 54.0955 29.5856 53.6545 29.5998L53.5834 29.6027C53.4454 29.6069 53.3088 29.6098 53.1708 29.6112H53.0513C52.8208 29.6112 52.5761 29.6098 52.3286 29.6027L52.2802 29.6013C52.2404 29.5998 52.202 29.5998 52.1622 29.5984C52.0526 29.5941 51.9402 29.5884 51.8293 29.5827C51.7397 29.5785 51.6486 29.5728 51.559 29.5671C51.458 29.5614 51.3556 29.5543 51.2517 29.5457C51.0981 29.5343 50.9458 29.5201 50.7922 29.5058C50.694 29.4959 50.5945 29.4859 50.4949 29.4745C50.3569 29.4588 50.2175 29.4432 50.0795 29.4247C49.9984 29.4147 49.9159 29.4033 49.8348 29.3919C49.6854 29.3705 49.536 29.3478 49.3838 29.3236L49.3269 29.315C49.2842 29.3079 49.243 29.3022 49.2003 29.2951C48.9926 29.2595 48.7835 29.221 48.5729 29.1797C48.5331 29.1712 48.4918 29.1641 48.452 29.1555L48.3979 29.1441C48.2315 29.1099 48.0636 29.0729 47.8958 29.0345L47.8787 29.0302C47.8204 29.0174 47.7606 29.0031 47.7023 28.9889C47.4505 28.9291 47.2399 28.8764 47.0365 28.8223C46.8971 28.7852 46.7577 28.7482 46.6197 28.7126L46.5016 28.6827C46.3949 28.6557 46.2911 28.6286 46.1858 28.603L46.0777 28.5759C45.9411 28.5417 45.8045 28.509 45.6708 28.4776L45.6125 28.4634C45.4972 28.4363 45.3806 28.4093 45.2654 28.3836L45.1444 28.3566C45.042 28.3338 44.9396 28.311 44.8372 28.2882L44.7404 28.2669C44.6095 28.2384 44.4801 28.2113 44.3506 28.1857L44.261 28.1672C44.16 28.1473 44.0576 28.1259 43.9566 28.106L43.8371 28.0832C43.7318 28.0632 43.6279 28.0433 43.5241 28.0234L43.4501 28.0091C43.3235 27.9863 43.1983 27.9635 43.0745 27.9408L42.975 27.9237C42.8782 27.9066 42.7857 27.8909 42.6933 27.8752L42.578 27.8553C42.4685 27.8368 42.359 27.8197 42.2508 27.8026C42.2494 27.8026 42.2352 27.7998 42.2338 27.7998L42.211 27.7955C42.0915 27.777 41.972 27.7585 41.8539 27.74L41.3802 27.6716C41.265 27.6559 41.1497 27.6388 41.0359 27.6246L40.9961 27.6189C40.8979 27.6061 40.7955 27.5933 40.6931 27.5805L40.5892 27.5676C40.5053 27.5577 40.4214 27.5477 40.3374 27.5377L40.2464 27.5278C40.1383 27.515 40.0302 27.5036 39.9235 27.4922L39.8609 27.485C39.7698 27.4751 39.683 27.4665 39.5963 27.458L39.5052 27.4494C39.417 27.4409 39.3331 27.4324 39.2477 27.4238L39.1894 27.4181C39.0841 27.4081 38.9817 27.3996 38.8807 27.3911L38.4952 27.3597C38.4069 27.3526 38.3187 27.3455 38.2305 27.3398L38.3102 25.9171L38.2092 27.3369C38.1125 27.3298 38.0172 27.3241 37.9218 27.317L37.5804 27.2956C37.3926 27.2842 37.2148 27.2757 37.0427 27.2672L36.7482 27.2543C36.5789 27.2472 36.4167 27.243 36.2602 27.2387H36.2446C36.1478 27.2358 36.0639 27.2344 35.9814 27.233C35.4422 27.223 34.9557 26.9083 34.7238 26.4212C34.4919 25.9342 34.5545 25.3574 34.886 24.9331C36.7738 22.5121 37.771 19.6041 37.771 16.5252C37.771 16.3572 37.7668 16.1749 37.7582 15.9655L37.7554 15.8801C37.7483 15.7135 37.7355 15.5369 37.7212 15.3546L37.7127 15.2563C37.6956 15.0684 37.6772 14.8975 37.6558 14.7337L37.6459 14.6611C37.6202 14.4759 37.5946 14.305 37.5662 14.1398L37.5605 14.1042C37.5335 13.9533 37.4993 13.7824 37.4581 13.5901L37.4396 13.5061C37.4026 13.3424 37.3613 13.1757 37.3172 13.0077L37.2945 12.9208C37.2447 12.7385 37.1977 12.5748 37.1494 12.4195L37.1351 12.374C37.0825 12.2088 37.027 12.0436 36.9687 11.8827L36.9573 11.8513C36.9004 11.6932 36.8378 11.5337 36.7667 11.3586L36.7368 11.2874C36.6714 11.1279 36.6017 10.9698 36.5305 10.816L36.5007 10.7519C36.421 10.5796 36.3456 10.4258 36.2716 10.282C36.2688 10.2763 36.2659 10.2706 36.2631 10.2663C36.1848 10.1125 36.0995 9.95728 36.0056 9.79066L35.9885 9.76075C35.9046 9.61264 35.8164 9.46454 35.7168 9.30647L35.6827 9.25235C35.5873 9.09997 35.4906 8.95329 35.3953 8.81373L35.3668 8.77385C35.162 8.47622 34.9415 8.18285 34.7139 7.90088L34.6982 7.88095C34.5858 7.74423 34.4692 7.60609 34.3482 7.46938L34.3198 7.43663C34.1946 7.29564 34.0708 7.16178 33.9499 7.03646C33.6853 6.76161 33.4122 6.501 33.1319 6.2532C33.1291 6.25036 33.1205 6.24324 33.1177 6.24039C32.984 6.12219 32.8417 6.00256 32.698 5.88579L32.6781 5.87012C32.2414 5.51695 31.7762 5.18656 31.2982 4.89034C31.2967 4.88892 31.2953 4.88892 31.2939 4.8875C31.1317 4.78781 30.9667 4.68955 30.8031 4.59698C30.5001 4.42609 30.1871 4.26517 29.8713 4.11848C29.4658 3.92908 29.0561 3.76246 28.645 3.6172L28.6066 3.60296C28.3306 3.50612 28.0518 3.41925 27.7786 3.34235L27.7331 3.32954C27.6108 3.29536 27.4898 3.26403 27.3675 3.23412L27.2949 3.21703C27.2039 3.19567 27.1157 3.17573 27.0261 3.1558C26.8326 3.11307 26.642 3.07605 26.4599 3.04472L26.3702 3.03048C26.2607 3.01196 26.1497 2.99487 26.0374 2.97921L25.9321 2.96497C25.7969 2.94645 25.6604 2.93079 25.5238 2.91655C25.5181 2.91655 25.5124 2.91512 25.5053 2.91512C25.3687 2.90088 25.2307 2.88949 25.0927 2.87952L24.9747 2.8724C24.8694 2.86528 24.7627 2.86101 24.656 2.85674L24.5322 2.85246C24.3914 2.84819 24.2491 2.84534 24.1054 2.84534C22.3756 2.84534 20.6898 3.16434 19.095 3.79379C18.8887 3.87496 18.6825 3.96183 18.4819 4.05298C18.1817 4.18827 17.883 4.3378 17.5927 4.49587C17.2086 4.70521 16.8288 4.93592 16.466 5.18086C16.1047 5.4258 15.7505 5.69069 15.4133 5.96838C15.3294 6.03817 15.2454 6.10795 15.1629 6.18057C14.9979 6.32298 14.8343 6.47251 14.6764 6.62204C14.4402 6.84705 14.2083 7.08488 13.9893 7.32697C13.8427 7.4879 13.6991 7.65451 13.5596 7.82398C13.3505 8.07747 13.1499 8.3395 12.9607 8.60723C12.8341 8.78525 12.7103 8.96896 12.5923 9.15266C12.5339 9.24523 12.4756 9.33779 12.4173 9.43178C11.1256 11.5608 10.4413 14.0088 10.4399 16.5124C10.4399 16.5167 10.4399 16.5209 10.4399 16.5252C10.4399 16.6819 10.4441 16.8371 10.4484 16.9923L10.4527 17.1005C10.4726 17.5947 10.5195 18.0846 10.5907 18.5617C10.6575 19.0117 10.5067 19.466 10.1838 19.785C8.65732 21.2945 7.21337 22.2088 7.1522 22.2472C7.11379 22.2714 7.07254 22.2942 7.03128 22.3156C7.02986 22.317 6.23746 22.73 5.45218 23.5574C5.60298 23.7169 5.95579 23.9846 6.63722 24.2367C6.64291 24.2381 6.65144 24.2424 6.65856 24.2452C7.59606 24.5884 8.87498 24.8035 10.3588 24.869C11.0772 24.9003 11.7856 24.8903 12.4614 24.8391C12.9166 24.8049 13.3605 24.9915 13.655 25.3404L13.7104 25.4059C13.7119 25.4087 13.7161 25.413 13.719 25.4158C13.8399 25.5568 13.9622 25.6935 14.0874 25.8302L14.1116 25.8559C14.2396 25.9926 14.3691 26.1279 14.4971 26.2532L14.5099 26.266C14.7788 26.5309 15.0605 26.7872 15.3479 27.0279C15.3507 27.0308 15.3635 27.0422 15.3664 27.0436C15.4958 27.1518 15.6395 27.2657 15.7889 27.3811L15.8344 27.4153C15.9767 27.5235 16.1218 27.6303 16.264 27.73L16.3053 27.7585C16.6083 27.9707 16.9241 28.1715 17.2399 28.3552L17.3623 28.4249C17.708 28.6215 17.9555 28.9547 18.0451 29.3421C18.1348 29.7294 18.0579 30.1381 17.8346 30.4671L17.7748 30.5568C17.725 30.6309 17.6738 30.7092 17.6226 30.7904L17.5984 30.8288C17.5486 30.9071 17.4974 30.9912 17.4462 31.0766L17.4277 31.1065C17.3751 31.1948 17.3239 31.2817 17.2741 31.3714L17.257 31.4013C17.2058 31.4925 17.1546 31.585 17.1048 31.6776L17.0906 31.7046C17.0393 31.8001 16.9896 31.8955 16.9398 31.9937L16.9255 32.0222C16.8772 32.1176 16.8288 32.2187 16.7804 32.3199C16.7804 32.3213 16.7733 32.3341 16.7733 32.3355C16.7207 32.4452 16.6737 32.5506 16.6268 32.6559C16.6268 32.6574 16.6211 32.6688 16.6197 32.6702C16.5699 32.7827 16.5229 32.8909 16.4774 33.002C16.476 33.0048 16.4717 33.0162 16.4703 33.0177C16.4248 33.1287 16.3793 33.2412 16.3352 33.3566C16.3337 33.3609 16.3309 33.3694 16.328 33.3737C16.2854 33.4862 16.2413 33.603 16.1986 33.7212C16.1972 33.724 16.1957 33.7297 16.1929 33.7354C16.1502 33.8536 16.109 33.9732 16.0691 34.0943C16.0677 34.0971 16.0663 34.1028 16.0649 34.1071C16.0236 34.2338 15.9852 34.3549 15.9482 34.4774C15.9468 34.4802 15.9468 34.4831 15.9454 34.4845C15.9098 34.6012 15.8771 34.718 15.8444 34.8362C15.8429 34.8391 15.8401 34.8533 15.8387 34.8562C15.8074 34.9687 15.7775 35.0854 15.7476 35.2036L15.7419 35.2264C15.7106 35.3489 15.685 35.4628 15.6594 35.5782L15.6495 35.6238C15.6238 35.7377 15.6011 35.8488 15.5783 35.9613L15.5641 36.0282C15.5442 36.1336 15.5243 36.2432 15.5043 36.3543L15.4915 36.4298C15.4731 36.538 15.456 36.6463 15.4403 36.7545L15.4275 36.8414C15.4119 36.9482 15.3991 37.055 15.3848 37.1604L15.372 37.2643C15.3607 37.3668 15.3493 37.4722 15.3393 37.5762L15.3279 37.6901C15.3194 37.7927 15.3109 37.8952 15.3038 37.9991L15.2952 38.1259C15.2895 38.227 15.2838 38.3281 15.2796 38.4292L15.2739 38.5659C15.2696 38.6656 15.2668 38.7653 15.2653 38.865L15.2639 39.0145C15.2625 39.1114 15.2625 39.2096 15.2639 39.3079C15.2639 39.362 15.2653 39.4147 15.2653 39.4688C15.2668 39.5656 15.2696 39.6625 15.2725 39.7593C15.2739 39.8163 15.2767 39.8733 15.2796 39.9302C15.2838 40.0242 15.2881 40.121 15.2938 40.2179C15.2966 40.2777 15.3009 40.3361 15.3052 40.3959C15.3123 40.4913 15.3194 40.5853 15.3279 40.6807C15.3322 40.7363 15.3379 40.7932 15.3436 40.8502L15.345 40.8687C15.3536 40.9613 15.3635 41.0553 15.3749 41.1492C15.382 41.2062 15.3891 41.2617 15.3948 41.3187L15.3991 41.3486C15.4105 41.4398 15.4233 41.5338 15.4361 41.6263C15.4446 41.6904 15.4546 41.7531 15.4645 41.8171L15.4674 41.8314C15.4816 41.924 15.4958 42.0151 15.5115 42.1077C15.5214 42.1703 15.5342 42.233 15.5456 42.2971L15.5499 42.3227C15.5669 42.4138 15.5826 42.505 15.6011 42.5961C15.6125 42.6559 15.6253 42.7157 15.6381 42.777L15.6466 42.8197C15.6665 42.9165 15.685 43.0034 15.7049 43.0903C15.7192 43.1501 15.7334 43.2113 15.7476 43.2726L15.7633 43.3395C15.7832 43.4221 15.8031 43.5061 15.8244 43.5901C15.8415 43.6542 15.8586 43.7197 15.8756 43.7838L15.897 43.8636C15.9169 43.9405 15.9382 44.0174 15.9596 44.0943C15.9767 44.1569 15.9951 44.2182 16.0136 44.2808L16.0506 44.4033C16.0705 44.4702 16.0905 44.5386 16.1118 44.6055C16.1317 44.6668 16.1516 44.7294 16.173 44.7921L16.2142 44.9188C16.2356 44.9858 16.2583 45.0541 16.2811 45.121C16.3024 45.1851 16.3266 45.2492 16.3494 45.3147L16.3992 45.4529C16.4219 45.5155 16.4433 45.5782 16.4675 45.6423C16.4916 45.7078 16.5187 45.7747 16.5443 45.8416L16.6012 45.9897C16.6239 46.0496 16.6467 46.1079 16.6709 46.1678C16.6979 46.2361 16.7264 46.303 16.7548 46.3714L16.8217 46.5309C16.8444 46.5864 16.8686 46.6434 16.8928 46.7004C16.9227 46.7687 16.954 46.8371 16.9839 46.9054L17.0607 47.0778C17.0849 47.1304 17.1076 47.1831 17.1318 47.2373C17.1645 47.307 17.1987 47.3782 17.2328 47.4494L17.3196 47.6303C17.3424 47.6787 17.3665 47.7286 17.3907 47.777C17.4291 47.8553 17.4704 47.9336 17.5117 48.0134L17.6027 48.19C17.6255 48.2341 17.6468 48.2768 17.6696 48.321C17.7222 48.4207 17.7763 48.5204 17.8317 48.62L17.9142 48.771C17.9327 48.8038 17.9498 48.8379 17.9683 48.8707C18.0679 49.0473 18.1703 49.2253 18.2756 49.4033C18.2784 49.409 18.287 49.4218 18.2912 49.4304C18.3723 49.5671 18.4634 49.7109 18.5772 49.8832C18.6014 49.9202 18.627 49.9573 18.6526 49.9943L18.6753 50.0271C18.7465 50.131 18.819 50.235 18.8944 50.3375L18.93 50.3859C18.9542 50.4201 18.9784 50.4543 19.004 50.487C19.1135 50.6323 19.2145 50.7619 19.3127 50.8801C19.3411 50.9143 19.3696 50.947 19.398 50.9812L19.4606 51.0538C19.5232 51.1279 19.5872 51.2019 19.6527 51.2746C19.7167 51.3458 19.7807 51.4156 19.8462 51.4853C19.8974 51.5409 19.9514 51.5964 20.0055 51.652C21.5263 53.2142 23.5378 54.4745 25.9833 55.3973L25.9989 55.403C27.0332 55.7918 28.1528 56.1236 29.325 56.3842H29.3264C30.281 56.5978 31.2854 56.7673 32.3096 56.8912L32.3424 56.8955C33.1461 56.9923 33.9784 57.0607 34.8134 57.1005C34.8177 57.1005 34.8277 57.102 34.8319 57.102C35.0183 57.1105 35.2175 57.1191 35.4152 57.1247L35.4949 57.1276C35.6898 57.1333 35.8875 57.1376 36.0852 57.1404C36.0981 57.149 36.1009 57.149 36.1037 57.149Z"/>
</mask>
<path d="M36.6386 60C36.4466 60 36.256 59.9986 36.0668 59.9957C36.0639 59.9957 36.0611 59.9957 36.0582 59.9957C35.8448 59.9929 35.6314 59.9872 35.4195 59.9815L35.3341 59.9786C35.1236 59.9715 34.9102 59.9644 34.6968 59.953C34.6925 59.953 34.6826 59.9516 34.6783 59.9516C33.7863 59.9089 32.8858 59.8334 32.0123 59.7294L31.9896 59.7266C30.8614 59.5913 29.7646 59.4033 28.7176 59.1697C28.7161 59.1697 28.7147 59.1698 28.7133 59.1683C27.413 58.8778 26.1654 58.509 25.0045 58.0718L24.9875 58.0661C22.1508 56.9952 19.7921 55.5084 17.9783 53.6443C17.9128 53.5773 17.8474 53.509 17.7819 53.4406C17.7009 53.3537 17.6226 53.2683 17.5444 53.1829C17.4633 53.0931 17.385 53.0006 17.3054 52.9094L17.2542 52.851C17.2101 52.7998 17.166 52.7485 17.1233 52.6972C16.9995 52.5477 16.8743 52.3868 16.7406 52.2102C16.705 52.1618 16.6695 52.1134 16.6339 52.0649L16.604 52.0222C16.5116 51.8955 16.4205 51.7659 16.3309 51.6349L16.3095 51.6035C16.2768 51.5551 16.2441 51.5067 16.2114 51.4583C16.072 51.2461 15.9582 51.0666 15.8529 50.8901C15.8515 50.8872 15.85 50.8858 15.8486 50.8829C15.8472 50.8815 15.8458 50.8787 15.8458 50.8772C15.8444 50.8744 15.8429 50.873 15.8415 50.8701C15.8387 50.8644 15.8358 50.8587 15.833 50.8545C15.7163 50.6565 15.6039 50.4628 15.4958 50.2706C15.4702 50.2236 15.4446 50.1766 15.419 50.1296L15.3479 50C15.2853 49.8861 15.2227 49.7721 15.1629 49.6596C15.133 49.6027 15.1032 49.5457 15.0747 49.4888L14.9936 49.3293C14.9453 49.2367 14.8983 49.1427 14.8514 49.0516C14.8201 48.9889 14.7902 48.9262 14.7617 48.865L14.6821 48.6984C14.6408 48.6144 14.601 48.5289 14.5612 48.4449C14.5299 48.378 14.5014 48.3124 14.4715 48.2455L14.4004 48.086C14.3634 48.0034 14.3264 47.9222 14.2909 47.8411C14.261 47.7713 14.2311 47.7015 14.2027 47.6317L14.1415 47.4836C14.1073 47.4024 14.0732 47.3213 14.0405 47.2401C14.0106 47.1675 13.9836 47.0948 13.9551 47.0222L13.9011 46.8841C13.8698 46.8043 13.8385 46.7246 13.81 46.6448C13.7816 46.5679 13.7545 46.4925 13.7275 46.4155L13.6806 46.286C13.6521 46.2076 13.6251 46.1293 13.5981 46.0524C13.5696 45.9712 13.544 45.8915 13.5184 45.8103L13.4785 45.6907C13.4544 45.6152 13.4288 45.5397 13.406 45.4643C13.3804 45.3831 13.3562 45.3033 13.3334 45.2222L13.2979 45.104C13.2751 45.0299 13.2538 44.9544 13.2324 44.8804C13.2068 44.7892 13.1826 44.6981 13.1585 44.6084L13.1385 44.5343C13.1172 44.4574 13.0973 44.3791 13.0774 44.3022C13.0532 44.2054 13.029 44.1085 13.0062 44.0117L12.9906 43.9476C12.9735 43.875 12.955 43.8009 12.9394 43.7283C12.9166 43.6272 12.8953 43.5261 12.8739 43.4264L12.8626 43.3737C12.8469 43.3025 12.8327 43.2298 12.8185 43.1586C12.7971 43.0533 12.7786 42.9479 12.7587 42.8425L12.7516 42.8169C12.7374 42.7428 12.7246 42.6673 12.7118 42.5933C12.6933 42.485 12.6776 42.3797 12.6605 42.2729L12.6577 42.2586C12.6463 42.1831 12.6349 42.1077 12.6236 42.0336C12.6079 41.9254 12.5937 41.8186 12.5809 41.7103L12.5766 41.6804C12.5681 41.6135 12.5595 41.5466 12.5524 41.4811C12.5396 41.3728 12.5282 41.2632 12.5183 41.1549L12.5169 41.135C12.5112 41.0695 12.5041 41.0026 12.4984 40.9371C12.4884 40.826 12.4799 40.7149 12.4728 40.6052C12.4671 40.5355 12.4628 40.4657 12.4585 40.3973C12.4514 40.2848 12.4457 40.1737 12.4415 40.0627C12.4386 39.9957 12.4358 39.9302 12.4329 39.8647C12.4287 39.7508 12.4258 39.6383 12.4244 39.5244C12.423 39.4617 12.423 39.399 12.4216 39.3364C12.4201 39.2224 12.4216 39.1071 12.4216 38.9932L12.4244 38.8194C12.4272 38.7012 12.4301 38.5844 12.4344 38.4691L12.4415 38.3082C12.4472 38.1885 12.4528 38.0704 12.46 37.9536L12.4699 37.8069C12.4785 37.6844 12.4884 37.5634 12.4984 37.4452L12.5112 37.3127C12.524 37.186 12.5368 37.0635 12.5496 36.9425L12.5638 36.8214C12.5795 36.6961 12.5951 36.5722 12.6136 36.4483L12.6293 36.3443C12.6477 36.2162 12.6677 36.0894 12.689 35.9641L12.7046 35.873C12.7274 35.742 12.7502 35.6138 12.7758 35.4856L12.7914 35.4087C12.817 35.2791 12.8441 35.1481 12.8739 35.0171L12.8867 34.9601C12.918 34.8234 12.9493 34.6881 12.9821 34.5557L12.9892 34.5286C13.0262 34.3791 13.0617 34.2424 13.1001 34.1057C13.1016 34.1014 13.1044 34.0886 13.1058 34.0843C13.1442 33.9433 13.1841 33.8052 13.2267 33.667C13.2267 33.6642 13.2282 33.6628 13.2282 33.6599C13.2737 33.5104 13.3206 33.3623 13.3676 33.2156C13.369 33.2113 13.3704 33.2056 13.3733 33.1999C13.4216 33.0533 13.4686 32.9151 13.5184 32.777C13.5212 32.7713 13.5227 32.7656 13.5255 32.7585C13.5739 32.6246 13.6251 32.4865 13.6777 32.3483C13.6791 32.3441 13.6863 32.327 13.6877 32.3227C13.736 32.1974 13.7901 32.0635 13.8442 31.9311C13.8456 31.9282 13.8499 31.9154 13.8513 31.9126C13.9068 31.7801 13.9622 31.6505 14.0177 31.5238C14.0191 31.5224 14.0234 31.5095 14.0248 31.5081C14.0832 31.3757 14.1415 31.2504 14.1998 31.1279C14.2012 31.1265 14.2069 31.1122 14.2083 31.1108C14.2709 30.9798 14.3293 30.8602 14.389 30.742L14.4032 30.7149C14.463 30.5953 14.5242 30.4799 14.5853 30.366L14.6053 30.329C14.6422 30.2606 14.6792 30.1908 14.7176 30.121C14.7063 30.1125 14.6949 30.1054 14.6835 30.0968L14.6323 30.0612C14.463 29.943 14.288 29.8134 14.1145 29.681L14.0647 29.6426C13.884 29.503 13.7119 29.3663 13.5497 29.231C13.5468 29.2281 13.5355 29.2182 13.5312 29.2153C13.1826 28.9234 12.8426 28.6144 12.5197 28.2954L12.5055 28.2825C12.349 28.1273 12.1925 27.9664 12.0374 27.7998L12.0118 27.7713C11.9962 27.7542 11.9805 27.7385 11.9649 27.7214C11.4001 27.7428 10.824 27.7414 10.2421 27.7157C8.43966 27.6374 6.90182 27.3683 5.67411 26.9168C5.66842 26.914 5.65704 26.9111 5.6485 26.9069C3.5089 26.1122 2.81751 24.9644 2.61265 24.1398C2.40637 23.3082 2.62261 22.4566 3.2073 21.8029C4.2643 20.6209 5.36398 19.9829 5.68549 19.812C5.87612 19.6867 6.72257 19.1171 7.68853 18.237C7.65438 17.9009 7.6302 17.5619 7.61597 17.2244L7.61028 17.0906C7.60317 16.8841 7.60032 16.7089 7.60032 16.5423C7.60032 16.538 7.60032 16.5323 7.60032 16.5281C7.60032 13.4976 8.42686 10.534 9.99173 7.95642C10.06 7.84249 10.1311 7.72999 10.2023 7.61891C10.3445 7.39675 10.4953 7.17459 10.6476 6.95956C10.8766 6.63771 11.1199 6.32014 11.3717 6.01396C11.5395 5.81031 11.7131 5.60951 11.8909 5.41441C12.1569 5.12247 12.4358 4.83623 12.7203 4.56423C12.9109 4.38194 13.1087 4.20251 13.3064 4.03019C13.406 3.94332 13.507 3.85787 13.608 3.77385C14.0149 3.43777 14.4417 3.11735 14.8784 2.82256C15.3166 2.52635 15.7746 2.24722 16.2398 1.99516C16.5912 1.80433 16.9526 1.62489 17.3153 1.4597C17.5586 1.35004 17.8076 1.24466 18.0565 1.1464C19.9841 0.38593 22.0213 0 24.1111 0C24.2833 0 24.454 0.00284839 24.6233 0.00854477L24.7727 0.0142407C24.9007 0.0199371 25.0287 0.025634 25.1568 0.0341785L25.2976 0.0427228C25.4669 0.0541155 25.6376 0.0683564 25.8055 0.0854455C25.8112 0.0854455 25.8183 0.0868697 25.8254 0.0882938C25.989 0.105383 26.1497 0.12532 26.3105 0.146682L26.4385 0.165195C26.5737 0.183708 26.7088 0.20507 26.8425 0.227855L26.9507 0.246368C27.1712 0.284819 27.4031 0.33039 27.6349 0.380233C27.7431 0.403019 27.8498 0.427228 27.9565 0.454286L28.0461 0.475648C28.194 0.512674 28.342 0.549701 28.4885 0.591L28.5483 0.606664C28.8755 0.697807 29.2126 0.80319 29.5441 0.918542L29.5953 0.937055C30.0918 1.11222 30.5854 1.31302 31.062 1.53517C31.0634 1.5366 31.0762 1.5423 31.0777 1.5423C31.4575 1.71888 31.8359 1.91398 32.2015 2.12048C32.4007 2.23298 32.5999 2.35118 32.7948 2.47223C32.799 2.47508 32.8033 2.47793 32.8076 2.47935C33.378 2.83395 33.94 3.2327 34.4706 3.66135L34.4976 3.68414C34.6641 3.818 34.8348 3.96326 35.0012 4.10852C35.0041 4.11136 35.014 4.11991 35.0169 4.12276C35.354 4.41897 35.6827 4.73369 35.9942 5.05696C36.1507 5.21931 36.3001 5.38023 36.448 5.54828L36.485 5.58957C36.6287 5.75335 36.7709 5.91854 36.9032 6.08231L36.9217 6.1051C37.2006 6.44973 37.4666 6.80433 37.7156 7.16605L37.7469 7.2102C37.8635 7.38109 37.9802 7.5591 38.094 7.73996L38.1338 7.80547C38.2533 7.9963 38.36 8.17573 38.461 8.35374L38.4795 8.3865C38.5947 8.59015 38.6957 8.7767 38.7911 8.96041C38.7925 8.96326 38.7939 8.96611 38.7953 8.96753C38.8921 9.15551 38.9845 9.34492 39.0813 9.55283L39.1168 9.62973C39.2036 9.81771 39.2861 10.0085 39.3658 10.1994L39.4014 10.2848C39.4881 10.497 39.5621 10.6907 39.6304 10.8787L39.6446 10.9185C39.7158 11.1165 39.784 11.3173 39.8481 11.5181L39.8651 11.5694C39.9249 11.763 39.9832 11.961 40.043 12.1774L40.0714 12.2828C40.1255 12.4836 40.1738 12.6873 40.2194 12.8866L40.2407 12.9863C40.2905 13.2156 40.3317 13.4221 40.3673 13.6201L40.373 13.6585C40.4071 13.8536 40.4384 14.0601 40.4697 14.2823L40.4811 14.3691C40.5067 14.5671 40.5295 14.7736 40.5508 14.9986L40.5608 15.1182C40.5793 15.3361 40.5935 15.5497 40.602 15.7533L40.6063 15.8545C40.6163 16.1022 40.6205 16.323 40.6205 16.5281C40.6205 19.3649 39.9192 22.082 38.5734 24.5101C38.6218 24.513 38.6716 24.5172 38.7213 24.5215L39.1296 24.5557C39.2378 24.5657 39.3459 24.5742 39.4554 24.5856L39.5194 24.5913C39.6091 24.5998 39.7001 24.6084 39.7912 24.6183L39.8893 24.6283C39.9804 24.6383 40.0728 24.6468 40.1667 24.6568L40.2336 24.6639C40.3474 24.6767 40.4612 24.6895 40.5764 24.7024L40.6717 24.7138C40.7599 24.7237 40.8496 24.7351 40.9392 24.7465L41.0502 24.7608C41.1554 24.7736 41.2636 24.7878 41.3731 24.802L41.3959 24.8049C41.3987 24.8049 41.4087 24.8063 41.4115 24.8063C41.5324 24.822 41.6533 24.8391 41.7757 24.8562L42.2779 24.9288C42.4031 24.9473 42.5283 24.9672 42.6563 24.9872L42.6933 24.9929C42.8128 25.0114 42.9294 25.0313 43.0447 25.0498L43.167 25.0698C43.2652 25.0869 43.3633 25.104 43.4629 25.121L43.571 25.1396C43.7033 25.1638 43.8356 25.1866 43.9679 25.2108L44.0476 25.225C44.1586 25.2464 44.2681 25.2663 44.3791 25.2877L44.5057 25.3119C44.6138 25.3332 44.7219 25.3546 44.83 25.376L44.9254 25.3959C45.0619 25.4244 45.1999 25.4529 45.3393 25.4828L45.4418 25.5056C45.5513 25.5298 45.6608 25.5525 45.769 25.5782L45.8984 25.6067C46.0208 25.6337 46.1445 25.6622 46.2669 25.6921L46.3266 25.7064C46.4717 25.7405 46.6168 25.7761 46.7605 25.8103L46.8743 25.8388C46.9867 25.8673 47.0977 25.8943 47.2101 25.9228L47.3381 25.9556C47.4846 25.994 47.6326 26.0325 47.7805 26.0723C47.9768 26.125 48.1717 26.1735 48.3666 26.219L48.5359 26.2575C48.6839 26.2917 48.8318 26.323 48.9769 26.3529L49.1306 26.3842C49.3155 26.4212 49.499 26.454 49.6811 26.4853L49.8405 26.511C49.9728 26.5323 50.1036 26.5523 50.2345 26.5708C50.3057 26.5807 50.3782 26.5907 50.4493 26.5993C50.5717 26.6149 50.6926 26.6292 50.8121 26.642C50.8975 26.652 50.9857 26.6605 51.071 26.669C51.2062 26.6819 51.3399 26.6947 51.4722 26.7046C51.5618 26.7118 51.6515 26.7175 51.7411 26.7232C51.8207 26.7289 51.8976 26.7331 51.9758 26.736C52.0725 26.7402 52.1707 26.7459 52.2674 26.7488L52.4097 26.7531C52.6288 26.7588 52.8408 26.7616 53.0428 26.7602H53.1466C53.2661 26.7588 53.3856 26.7573 53.5037 26.7531L53.5649 26.7516C53.9504 26.7388 54.3317 26.716 54.7015 26.6819C57.6805 26.4056 59.9965 25.46 61.1701 24.6668C61.2171 24.6354 61.2612 24.6041 61.3053 24.5728L61.3309 24.5543C61.3693 24.5272 61.4034 24.5016 61.4362 24.4759L61.4803 24.4403C61.4817 24.4389 61.4931 24.4304 61.4945 24.4289C61.513 24.4147 61.5301 24.4005 61.5471 24.3862C61.577 24.3606 61.6083 24.3335 61.6382 24.3065C62.0934 23.8778 62.7165 23.7197 63.3069 23.8821C63.9841 24.0686 64.8632 24.6411 65.6599 27.438C65.7253 27.6688 65.7894 27.9109 65.8491 28.1586C65.9103 28.4093 65.9686 28.6699 66.0227 28.9348C66.1066 29.3406 66.182 29.7664 66.2503 30.198C66.32 30.6437 66.3797 31.1051 66.4295 31.5694C66.4637 31.8869 66.4935 32.2116 66.5177 32.5363C66.5832 33.3865 66.6145 34.2523 66.6116 35.1125C66.6102 35.4714 66.6031 35.8359 66.5903 36.1934C66.5704 36.7502 66.5348 37.3099 66.4864 37.8582C66.4523 38.237 66.411 38.6172 66.3641 38.9889C65.9899 41.9268 65.2089 44.6169 64.041 46.9823C63.2784 48.5275 62.3438 49.9416 61.264 51.182C61.1417 51.323 61.0065 51.4711 60.8529 51.6349C60.8216 51.669 60.7875 51.7032 60.7547 51.7374L60.7192 51.7744C60.621 51.877 60.52 51.9781 60.4162 52.0792C60.3635 52.1304 60.3109 52.1817 60.2582 52.2316C60.1544 52.3298 60.0505 52.4267 59.9438 52.5235L59.9026 52.5605C59.8656 52.5947 59.8286 52.6289 59.7902 52.6616C59.6536 52.7827 59.5156 52.9009 59.3734 53.0191L59.3108 53.0718C59.1515 53.2028 58.9879 53.3338 58.8072 53.4734C58.7716 53.5004 58.7346 53.5289 58.6976 53.556L58.6521 53.5901C58.5312 53.6813 58.4089 53.7739 58.2837 53.8636C58.2211 53.9091 58.1571 53.9547 58.093 54.0003C57.9735 54.0843 57.8526 54.1683 57.7303 54.2509L57.6847 54.2823C57.6364 54.315 57.588 54.3478 57.5396 54.3805C57.396 54.4759 57.2508 54.5699 57.1029 54.6625L57.0602 54.6895C57.0318 54.7081 57.0047 54.7251 56.9763 54.7437C56.7885 54.8604 56.5979 54.9758 56.4044 55.0897C56.366 55.1125 56.3276 55.1339 56.2892 55.1566L56.2323 55.1894C56.0928 55.2706 55.952 55.3503 55.8097 55.4286C55.74 55.4671 55.6703 55.5056 55.5992 55.544L55.585 55.5525C55.4541 55.6238 55.3232 55.6935 55.1909 55.7619L55.1696 55.7733C55.0984 55.8103 55.0287 55.8473 54.9576 55.8829C54.8139 55.9556 54.6688 56.0282 54.5223 56.0994L54.4554 56.1322C54.4127 56.1535 54.3701 56.1749 54.326 56.1948C54.1211 56.2931 53.9134 56.3899 53.7029 56.4853C53.6573 56.5067 53.6118 56.5266 53.5663 56.5466L53.4966 56.5779C53.3501 56.6434 53.2007 56.7089 53.0499 56.7744C52.9631 56.8114 52.8749 56.8485 52.7853 56.8855C52.6473 56.9439 52.5136 56.998 52.3798 57.0521C52.2845 57.0906 52.1892 57.129 52.0939 57.166C51.9573 57.2202 51.8179 57.2729 51.6799 57.3255L51.6059 57.354C51.5405 57.3797 51.475 57.4039 51.4082 57.4281C51.1919 57.5078 50.9743 57.5862 50.7552 57.6631C50.6997 57.683 50.6428 57.7015 50.5859 57.7214L50.4934 57.7528C50.3483 57.8026 50.2047 57.851 50.0581 57.898C49.9557 57.9308 49.8533 57.9635 49.7523 57.9963L49.7281 58.0034C49.6029 58.0433 49.4791 58.0817 49.3525 58.1202C49.2344 58.1558 49.1178 58.1914 49.0011 58.2256C48.8788 58.2612 48.7564 58.2968 48.6327 58.3324L48.5658 58.3509C48.4691 58.378 48.3723 58.4064 48.2756 58.4335C48.1646 58.4648 48.0522 58.4947 47.9399 58.5232L47.8787 58.5389C47.6653 58.5958 47.4519 58.65 47.2371 58.7041L47.1546 58.7254C47.0664 58.7468 46.9782 58.7696 46.8886 58.7909C46.7634 58.8208 46.6396 58.8493 46.5144 58.8778L46.4774 58.8864C46.3707 58.9106 46.264 58.9348 46.1573 58.959C46.0165 58.9903 45.8742 59.0202 45.732 59.0516C45.6295 59.0729 45.53 59.0928 45.429 59.1142C45.281 59.1441 45.1316 59.174 44.9837 59.2025C44.9325 59.2125 44.8798 59.2224 44.8286 59.231L44.7433 59.2467C44.3947 59.3122 44.049 59.372 43.7161 59.4261L43.5909 59.4474C43.4217 59.4745 43.2538 59.5001 43.0845 59.5243L42.8455 59.56C42.6791 59.5842 42.5112 59.6069 42.3419 59.6283L42.1129 59.6582C41.9379 59.681 41.7615 59.7024 41.5851 59.7223L41.4528 59.7365C40.8382 59.8049 40.2122 59.8604 39.5948 59.9032L39.4625 59.9117C39.2705 59.9245 39.077 59.9359 38.8849 59.9459L38.7327 59.953C38.535 59.963 38.3358 59.9715 38.1367 59.9786L38.0798 59.9801C37.5975 59.9929 37.1152 60 36.6386 60ZM36.1037 57.149C36.7226 57.1575 37.3542 57.1518 37.983 57.1304L38.0328 57.129C38.2192 57.1219 38.4055 57.1148 38.5905 57.1048L38.7313 57.0977C38.912 57.0877 39.0926 57.0778 39.2733 57.0664L39.3971 57.0578C39.9761 57.0179 40.5622 56.9652 41.1369 56.9012L41.2607 56.8883C41.4257 56.8698 41.5908 56.8499 41.7558 56.8285L41.9706 56.8015C42.1285 56.7801 42.285 56.7602 42.4415 56.7374L42.6648 56.7046C42.8227 56.6819 42.9806 56.6576 43.1386 56.632L43.2566 56.6121C43.5682 56.5608 43.8911 56.5053 44.2169 56.444L44.4431 56.4013C44.5839 56.3743 44.7233 56.3458 44.8613 56.3173C44.9552 56.2988 45.0505 56.2788 45.1444 56.2589C45.2767 56.2304 45.409 56.2019 45.5413 56.1735C45.6423 56.1507 45.7419 56.1279 45.8401 56.1051L45.8771 56.0965C45.9923 56.0695 46.109 56.0439 46.2242 56.0154C46.3039 55.9969 46.3835 55.9769 46.4646 55.9556L46.55 55.9342C46.7506 55.8844 46.9497 55.8331 47.1475 55.7804L47.2101 55.7633C47.3125 55.7363 47.4163 55.7092 47.5188 55.6807C47.607 55.6565 47.6938 55.6309 47.782 55.6067L47.8502 55.5867C47.9655 55.554 48.0793 55.5212 48.1917 55.487C48.3012 55.4543 48.4093 55.4215 48.5174 55.3888C48.6341 55.3532 48.7493 55.3161 48.866 55.2805L48.8902 55.2734C48.9841 55.2435 49.0794 55.2136 49.1733 55.1837C49.307 55.1396 49.4407 55.094 49.5744 55.0498L49.6783 55.0142C49.7252 54.9986 49.7708 54.9829 49.8177 54.9672C50.0211 54.896 50.2217 54.8248 50.4209 54.7508C50.4778 54.7294 50.5347 54.7081 50.5902 54.6867L50.6699 54.6568C50.7979 54.6084 50.9259 54.56 51.0511 54.5101C51.1393 54.4759 51.2261 54.4403 51.3129 54.4062C51.4352 54.3563 51.5576 54.3065 51.6785 54.2566C51.7667 54.2196 51.8478 54.1868 51.9274 54.1527C52.0654 54.0943 52.202 54.0345 52.3372 53.9732L52.5264 53.8892C52.7156 53.8038 52.9048 53.714 53.0926 53.6243L53.269 53.5375C53.4013 53.4734 53.5336 53.4079 53.663 53.3409C53.727 53.3082 53.7896 53.2754 53.8522 53.2427L53.8736 53.2313C53.9931 53.1686 54.1111 53.1059 54.2278 53.0433L54.242 53.0362C54.3046 53.002 54.3672 52.9678 54.4298 52.9336C54.5578 52.8624 54.683 52.7912 54.8082 52.7186L54.9619 52.6303C55.134 52.5292 55.3033 52.4267 55.4697 52.3227L55.5821 52.2501C55.7102 52.1689 55.8396 52.0863 55.9648 52.0023C56.0046 51.9752 56.0445 51.9482 56.0843 51.9211L56.1327 51.8884C56.2394 51.8157 56.3446 51.7431 56.4485 51.669C56.504 51.6292 56.5595 51.5907 56.6135 51.5508C56.7216 51.4725 56.8283 51.3928 56.9336 51.313L56.9905 51.2703C57.0161 51.2518 57.0417 51.2318 57.0659 51.2133C57.2224 51.0923 57.3618 50.9812 57.4955 50.8715L57.551 50.8246C57.6705 50.7249 57.7872 50.6252 57.9024 50.5226C57.9309 50.4984 57.9579 50.4728 57.9849 50.4486L58.0304 50.4073C58.1186 50.3275 58.2068 50.2464 58.2922 50.1638C58.3363 50.1225 58.3804 50.0798 58.4231 50.037C58.5084 49.9544 58.5909 49.8704 58.672 49.785L58.7176 49.7394C58.7389 49.7166 58.7617 49.6952 58.7816 49.6725C58.9096 49.5372 59.0177 49.4175 59.1159 49.3065C60.0349 48.2498 60.833 47.0421 61.4874 45.7163C62.5145 43.6343 63.2059 41.2489 63.5388 38.6257C63.5815 38.2882 63.6185 37.9436 63.6497 37.6004C63.6938 37.102 63.7266 36.5936 63.7451 36.0866C63.7564 35.7605 63.7636 35.4286 63.765 35.0997C63.7678 34.315 63.7394 33.5246 63.6796 32.7499C63.6569 32.4537 63.6298 32.1589 63.5985 31.8698C63.553 31.4497 63.499 31.0325 63.4364 30.6309C63.3766 30.2449 63.3083 29.8661 63.2343 29.5058C63.186 29.2737 63.1362 29.0459 63.0821 28.828C63.0309 28.6158 62.9769 28.4107 62.9214 28.2156C62.7948 27.7727 62.6724 27.4238 62.5643 27.1561C60.6651 28.3723 57.8469 29.2509 54.9619 29.5187C54.5351 29.5585 54.0955 29.5856 53.6545 29.5998L53.5834 29.6027C53.4454 29.6069 53.3088 29.6098 53.1708 29.6112H53.0513C52.8208 29.6112 52.5761 29.6098 52.3286 29.6027L52.2802 29.6013C52.2404 29.5998 52.202 29.5998 52.1622 29.5984C52.0526 29.5941 51.9402 29.5884 51.8293 29.5827C51.7397 29.5785 51.6486 29.5728 51.559 29.5671C51.458 29.5614 51.3556 29.5543 51.2517 29.5457C51.0981 29.5343 50.9458 29.5201 50.7922 29.5058C50.694 29.4959 50.5945 29.4859 50.4949 29.4745C50.3569 29.4588 50.2175 29.4432 50.0795 29.4247C49.9984 29.4147 49.9159 29.4033 49.8348 29.3919C49.6854 29.3705 49.536 29.3478 49.3838 29.3236L49.3269 29.315C49.2842 29.3079 49.243 29.3022 49.2003 29.2951C48.9926 29.2595 48.7835 29.221 48.5729 29.1797C48.5331 29.1712 48.4918 29.1641 48.452 29.1555L48.3979 29.1441C48.2315 29.1099 48.0636 29.0729 47.8958 29.0345L47.8787 29.0302C47.8204 29.0174 47.7606 29.0031 47.7023 28.9889C47.4505 28.9291 47.2399 28.8764 47.0365 28.8223C46.8971 28.7852 46.7577 28.7482 46.6197 28.7126L46.5016 28.6827C46.3949 28.6557 46.2911 28.6286 46.1858 28.603L46.0777 28.5759C45.9411 28.5417 45.8045 28.509 45.6708 28.4776L45.6125 28.4634C45.4972 28.4363 45.3806 28.4093 45.2654 28.3836L45.1444 28.3566C45.042 28.3338 44.9396 28.311 44.8372 28.2882L44.7404 28.2669C44.6095 28.2384 44.4801 28.2113 44.3506 28.1857L44.261 28.1672C44.16 28.1473 44.0576 28.1259 43.9566 28.106L43.8371 28.0832C43.7318 28.0632 43.6279 28.0433 43.5241 28.0234L43.4501 28.0091C43.3235 27.9863 43.1983 27.9635 43.0745 27.9408L42.975 27.9237C42.8782 27.9066 42.7857 27.8909 42.6933 27.8752L42.578 27.8553C42.4685 27.8368 42.359 27.8197 42.2508 27.8026C42.2494 27.8026 42.2352 27.7998 42.2338 27.7998L42.211 27.7955C42.0915 27.777 41.972 27.7585 41.8539 27.74L41.3802 27.6716C41.265 27.6559 41.1497 27.6388 41.0359 27.6246L40.9961 27.6189C40.8979 27.6061 40.7955 27.5933 40.6931 27.5805L40.5892 27.5676C40.5053 27.5577 40.4214 27.5477 40.3374 27.5377L40.2464 27.5278C40.1383 27.515 40.0302 27.5036 39.9235 27.4922L39.8609 27.485C39.7698 27.4751 39.683 27.4665 39.5963 27.458L39.5052 27.4494C39.417 27.4409 39.3331 27.4324 39.2477 27.4238L39.1894 27.4181C39.0841 27.4081 38.9817 27.3996 38.8807 27.3911L38.4952 27.3597C38.4069 27.3526 38.3187 27.3455 38.2305 27.3398L38.3102 25.9171L38.2092 27.3369C38.1125 27.3298 38.0172 27.3241 37.9218 27.317L37.5804 27.2956C37.3926 27.2842 37.2148 27.2757 37.0427 27.2672L36.7482 27.2543C36.5789 27.2472 36.4167 27.243 36.2602 27.2387H36.2446C36.1478 27.2358 36.0639 27.2344 35.9814 27.233C35.4422 27.223 34.9557 26.9083 34.7238 26.4212C34.4919 25.9342 34.5545 25.3574 34.886 24.9331C36.7738 22.5121 37.771 19.6041 37.771 16.5252C37.771 16.3572 37.7668 16.1749 37.7582 15.9655L37.7554 15.8801C37.7483 15.7135 37.7355 15.5369 37.7212 15.3546L37.7127 15.2563C37.6956 15.0684 37.6772 14.8975 37.6558 14.7337L37.6459 14.6611C37.6202 14.4759 37.5946 14.305 37.5662 14.1398L37.5605 14.1042C37.5335 13.9533 37.4993 13.7824 37.4581 13.5901L37.4396 13.5061C37.4026 13.3424 37.3613 13.1757 37.3172 13.0077L37.2945 12.9208C37.2447 12.7385 37.1977 12.5748 37.1494 12.4195L37.1351 12.374C37.0825 12.2088 37.027 12.0436 36.9687 11.8827L36.9573 11.8513C36.9004 11.6932 36.8378 11.5337 36.7667 11.3586L36.7368 11.2874C36.6714 11.1279 36.6017 10.9698 36.5305 10.816L36.5007 10.7519C36.421 10.5796 36.3456 10.4258 36.2716 10.282C36.2688 10.2763 36.2659 10.2706 36.2631 10.2663C36.1848 10.1125 36.0995 9.95728 36.0056 9.79066L35.9885 9.76075C35.9046 9.61264 35.8164 9.46454 35.7168 9.30647L35.6827 9.25235C35.5873 9.09997 35.4906 8.95329 35.3953 8.81373L35.3668 8.77385C35.162 8.47622 34.9415 8.18285 34.7139 7.90088L34.6982 7.88095C34.5858 7.74423 34.4692 7.60609 34.3482 7.46938L34.3198 7.43663C34.1946 7.29564 34.0708 7.16178 33.9499 7.03646C33.6853 6.76161 33.4122 6.501 33.1319 6.2532C33.1291 6.25036 33.1205 6.24324 33.1177 6.24039C32.984 6.12219 32.8417 6.00256 32.698 5.88579L32.6781 5.87012C32.2414 5.51695 31.7762 5.18656 31.2982 4.89034C31.2967 4.88892 31.2953 4.88892 31.2939 4.8875C31.1317 4.78781 30.9667 4.68955 30.8031 4.59698C30.5001 4.42609 30.1871 4.26517 29.8713 4.11848C29.4658 3.92908 29.0561 3.76246 28.645 3.6172L28.6066 3.60296C28.3306 3.50612 28.0518 3.41925 27.7786 3.34235L27.7331 3.32954C27.6108 3.29536 27.4898 3.26403 27.3675 3.23412L27.2949 3.21703C27.2039 3.19567 27.1157 3.17573 27.0261 3.1558C26.8326 3.11307 26.642 3.07605 26.4599 3.04472L26.3702 3.03048C26.2607 3.01196 26.1497 2.99487 26.0374 2.97921L25.9321 2.96497C25.7969 2.94645 25.6604 2.93079 25.5238 2.91655C25.5181 2.91655 25.5124 2.91512 25.5053 2.91512C25.3687 2.90088 25.2307 2.88949 25.0927 2.87952L24.9747 2.8724C24.8694 2.86528 24.7627 2.86101 24.656 2.85674L24.5322 2.85246C24.3914 2.84819 24.2491 2.84534 24.1054 2.84534C22.3756 2.84534 20.6898 3.16434 19.095 3.79379C18.8887 3.87496 18.6825 3.96183 18.4819 4.05298C18.1817 4.18827 17.883 4.3378 17.5927 4.49587C17.2086 4.70521 16.8288 4.93592 16.466 5.18086C16.1047 5.4258 15.7505 5.69069 15.4133 5.96838C15.3294 6.03817 15.2454 6.10795 15.1629 6.18057C14.9979 6.32298 14.8343 6.47251 14.6764 6.62204C14.4402 6.84705 14.2083 7.08488 13.9893 7.32697C13.8427 7.4879 13.6991 7.65451 13.5596 7.82398C13.3505 8.07747 13.1499 8.3395 12.9607 8.60723C12.8341 8.78525 12.7103 8.96896 12.5923 9.15266C12.5339 9.24523 12.4756 9.33779 12.4173 9.43178C11.1256 11.5608 10.4413 14.0088 10.4399 16.5124C10.4399 16.5167 10.4399 16.5209 10.4399 16.5252C10.4399 16.6819 10.4441 16.8371 10.4484 16.9923L10.4527 17.1005C10.4726 17.5947 10.5195 18.0846 10.5907 18.5617C10.6575 19.0117 10.5067 19.466 10.1838 19.785C8.65732 21.2945 7.21337 22.2088 7.1522 22.2472C7.11379 22.2714 7.07254 22.2942 7.03128 22.3156C7.02986 22.317 6.23746 22.73 5.45218 23.5574C5.60298 23.7169 5.95579 23.9846 6.63722 24.2367C6.64291 24.2381 6.65144 24.2424 6.65856 24.2452C7.59606 24.5884 8.87498 24.8035 10.3588 24.869C11.0772 24.9003 11.7856 24.8903 12.4614 24.8391C12.9166 24.8049 13.3605 24.9915 13.655 25.3404L13.7104 25.4059C13.7119 25.4087 13.7161 25.413 13.719 25.4158C13.8399 25.5568 13.9622 25.6935 14.0874 25.8302L14.1116 25.8559C14.2396 25.9926 14.3691 26.1279 14.4971 26.2532L14.5099 26.266C14.7788 26.5309 15.0605 26.7872 15.3479 27.0279C15.3507 27.0308 15.3635 27.0422 15.3664 27.0436C15.4958 27.1518 15.6395 27.2657 15.7889 27.3811L15.8344 27.4153C15.9767 27.5235 16.1218 27.6303 16.264 27.73L16.3053 27.7585C16.6083 27.9707 16.9241 28.1715 17.2399 28.3552L17.3623 28.4249C17.708 28.6215 17.9555 28.9547 18.0451 29.3421C18.1348 29.7294 18.0579 30.1381 17.8346 30.4671L17.7748 30.5568C17.725 30.6309 17.6738 30.7092 17.6226 30.7904L17.5984 30.8288C17.5486 30.9071 17.4974 30.9912 17.4462 31.0766L17.4277 31.1065C17.3751 31.1948 17.3239 31.2817 17.2741 31.3714L17.257 31.4013C17.2058 31.4925 17.1546 31.585 17.1048 31.6776L17.0906 31.7046C17.0393 31.8001 16.9896 31.8955 16.9398 31.9937L16.9255 32.0222C16.8772 32.1176 16.8288 32.2187 16.7804 32.3199C16.7804 32.3213 16.7733 32.3341 16.7733 32.3355C16.7207 32.4452 16.6737 32.5506 16.6268 32.6559C16.6268 32.6574 16.6211 32.6688 16.6197 32.6702C16.5699 32.7827 16.5229 32.8909 16.4774 33.002C16.476 33.0048 16.4717 33.0162 16.4703 33.0177C16.4248 33.1287 16.3793 33.2412 16.3352 33.3566C16.3337 33.3609 16.3309 33.3694 16.328 33.3737C16.2854 33.4862 16.2413 33.603 16.1986 33.7212C16.1972 33.724 16.1957 33.7297 16.1929 33.7354C16.1502 33.8536 16.109 33.9732 16.0691 34.0943C16.0677 34.0971 16.0663 34.1028 16.0649 34.1071C16.0236 34.2338 15.9852 34.3549 15.9482 34.4774C15.9468 34.4802 15.9468 34.4831 15.9454 34.4845C15.9098 34.6012 15.8771 34.718 15.8444 34.8362C15.8429 34.8391 15.8401 34.8533 15.8387 34.8562C15.8074 34.9687 15.7775 35.0854 15.7476 35.2036L15.7419 35.2264C15.7106 35.3489 15.685 35.4628 15.6594 35.5782L15.6495 35.6238C15.6238 35.7377 15.6011 35.8488 15.5783 35.9613L15.5641 36.0282C15.5442 36.1336 15.5243 36.2432 15.5043 36.3543L15.4915 36.4298C15.4731 36.538 15.456 36.6463 15.4403 36.7545L15.4275 36.8414C15.4119 36.9482 15.3991 37.055 15.3848 37.1604L15.372 37.2643C15.3607 37.3668 15.3493 37.4722 15.3393 37.5762L15.3279 37.6901C15.3194 37.7927 15.3109 37.8952 15.3038 37.9991L15.2952 38.1259C15.2895 38.227 15.2838 38.3281 15.2796 38.4292L15.2739 38.5659C15.2696 38.6656 15.2668 38.7653 15.2653 38.865L15.2639 39.0145C15.2625 39.1114 15.2625 39.2096 15.2639 39.3079C15.2639 39.362 15.2653 39.4147 15.2653 39.4688C15.2668 39.5656 15.2696 39.6625 15.2725 39.7593C15.2739 39.8163 15.2767 39.8733 15.2796 39.9302C15.2838 40.0242 15.2881 40.121 15.2938 40.2179C15.2966 40.2777 15.3009 40.3361 15.3052 40.3959C15.3123 40.4913 15.3194 40.5853 15.3279 40.6807C15.3322 40.7363 15.3379 40.7932 15.3436 40.8502L15.345 40.8687C15.3536 40.9613 15.3635 41.0553 15.3749 41.1492C15.382 41.2062 15.3891 41.2617 15.3948 41.3187L15.3991 41.3486C15.4105 41.4398 15.4233 41.5338 15.4361 41.6263C15.4446 41.6904 15.4546 41.7531 15.4645 41.8171L15.4674 41.8314C15.4816 41.924 15.4958 42.0151 15.5115 42.1077C15.5214 42.1703 15.5342 42.233 15.5456 42.2971L15.5499 42.3227C15.5669 42.4138 15.5826 42.505 15.6011 42.5961C15.6125 42.6559 15.6253 42.7157 15.6381 42.777L15.6466 42.8197C15.6665 42.9165 15.685 43.0034 15.7049 43.0903C15.7192 43.1501 15.7334 43.2113 15.7476 43.2726L15.7633 43.3395C15.7832 43.4221 15.8031 43.5061 15.8244 43.5901C15.8415 43.6542 15.8586 43.7197 15.8756 43.7838L15.897 43.8636C15.9169 43.9405 15.9382 44.0174 15.9596 44.0943C15.9767 44.1569 15.9951 44.2182 16.0136 44.2808L16.0506 44.4033C16.0705 44.4702 16.0905 44.5386 16.1118 44.6055C16.1317 44.6668 16.1516 44.7294 16.173 44.7921L16.2142 44.9188C16.2356 44.9858 16.2583 45.0541 16.2811 45.121C16.3024 45.1851 16.3266 45.2492 16.3494 45.3147L16.3992 45.4529C16.4219 45.5155 16.4433 45.5782 16.4675 45.6423C16.4916 45.7078 16.5187 45.7747 16.5443 45.8416L16.6012 45.9897C16.6239 46.0496 16.6467 46.1079 16.6709 46.1678C16.6979 46.2361 16.7264 46.303 16.7548 46.3714L16.8217 46.5309C16.8444 46.5864 16.8686 46.6434 16.8928 46.7004C16.9227 46.7687 16.954 46.8371 16.9839 46.9054L17.0607 47.0778C17.0849 47.1304 17.1076 47.1831 17.1318 47.2373C17.1645 47.307 17.1987 47.3782 17.2328 47.4494L17.3196 47.6303C17.3424 47.6787 17.3665 47.7286 17.3907 47.777C17.4291 47.8553 17.4704 47.9336 17.5117 48.0134L17.6027 48.19C17.6255 48.2341 17.6468 48.2768 17.6696 48.321C17.7222 48.4207 17.7763 48.5204 17.8317 48.62L17.9142 48.771C17.9327 48.8038 17.9498 48.8379 17.9683 48.8707C18.0679 49.0473 18.1703 49.2253 18.2756 49.4033C18.2784 49.409 18.287 49.4218 18.2912 49.4304C18.3723 49.5671 18.4634 49.7109 18.5772 49.8832C18.6014 49.9202 18.627 49.9573 18.6526 49.9943L18.6753 50.0271C18.7465 50.131 18.819 50.235 18.8944 50.3375L18.93 50.3859C18.9542 50.4201 18.9784 50.4543 19.004 50.487C19.1135 50.6323 19.2145 50.7619 19.3127 50.8801C19.3411 50.9143 19.3696 50.947 19.398 50.9812L19.4606 51.0538C19.5232 51.1279 19.5872 51.2019 19.6527 51.2746C19.7167 51.3458 19.7807 51.4156 19.8462 51.4853C19.8974 51.5409 19.9514 51.5964 20.0055 51.652C21.5263 53.2142 23.5378 54.4745 25.9833 55.3973L25.9989 55.403C27.0332 55.7918 28.1528 56.1236 29.325 56.3842H29.3264C30.281 56.5978 31.2854 56.7673 32.3096 56.8912L32.3424 56.8955C33.1461 56.9923 33.9784 57.0607 34.8134 57.1005C34.8177 57.1005 34.8277 57.102 34.8319 57.102C35.0183 57.1105 35.2175 57.1191 35.4152 57.1247L35.4949 57.1276C35.6898 57.1333 35.8875 57.1376 36.0852 57.1404C36.0981 57.149 36.1009 57.149 36.1037 57.149Z" fill="black" stroke="#1B1A19" stroke-width="2" mask="url(#path-1-inside-1_15_1221)"/>
<mask id="path-2-inside-2_15_1221" fill="white">
<path d="M33.8988 25.8388C33.8988 25.8388 39.888 25.4286 47.4107 27.448C54.9335 29.4674 60.9696 26.8955 62.6156 25.3432C64.2615 23.7909 68.5607 40.628 60.1914 50.2449C51.8222 59.8618 24.5707 62.7912 17.0707 50.1581C9.57071 37.5249 16.9982 27.0592 20.6927 26.2489"/>
</mask>
<path d="M33.8988 25.8388C33.8988 25.8388 39.888 25.4286 47.4107 27.448C54.9335 29.4674 60.9696 26.8955 62.6156 25.3432C64.2615 23.7909 68.5607 40.628 60.1914 50.2449C51.8222 59.8618 24.5707 62.7912 17.0707 50.1581C9.57071 37.5249 16.9982 27.0592 20.6927 26.2489" fill="#FAFF00"/>
<path d="M33.8988 25.8388C33.9671 26.8364 33.9669 26.8365 33.9667 26.8365C33.9667 26.8365 33.9666 26.8365 33.9665 26.8365C33.9664 26.8365 33.9664 26.8365 33.9665 26.8365C33.9667 26.8365 33.9673 26.8364 33.9682 26.8364C33.97 26.8363 33.9732 26.836 33.9778 26.8358C33.9872 26.8352 34.0022 26.8343 34.0227 26.8332C34.0638 26.8309 34.1271 26.8277 34.2115 26.8243C34.3803 26.8174 34.6335 26.8095 34.9623 26.8062C35.6201 26.7995 36.5798 26.8109 37.7723 26.8842C40.1592 27.031 43.4687 27.4252 47.1515 28.4138L47.67 26.4822C43.83 25.4514 40.3835 25.041 37.8951 24.888C36.65 24.8115 35.6422 24.7992 34.942 24.8063C34.5917 24.8099 34.3182 24.8183 34.1301 24.8259C34.036 24.8298 33.9633 24.8334 33.913 24.8362C33.8879 24.8376 33.8683 24.8387 33.8545 24.8396C33.8476 24.84 33.8421 24.8403 33.8381 24.8406C33.8361 24.8407 33.8345 24.8408 33.8332 24.8409C33.8325 24.841 33.832 24.841 33.8315 24.841C33.8313 24.8411 33.831 24.8411 33.8309 24.8411C33.8307 24.8411 33.8304 24.8411 33.8988 25.8388ZM47.1515 28.4138C51.0827 29.4691 54.6359 29.3272 57.432 28.7116C60.1918 28.1039 62.3022 27.0133 63.3017 26.0707L61.9295 24.6157C61.283 25.2254 59.5524 26.1968 57.0019 26.7584C54.4877 27.3119 51.2615 27.4463 47.67 26.4822L47.1515 28.4138ZM63.3017 26.0707C63.2502 26.1193 63.153 26.1892 63.0089 26.2236C62.8612 26.2587 62.7278 26.2413 62.6321 26.209C62.4778 26.157 62.4553 26.0815 62.5397 26.1894C62.6917 26.3836 62.9187 26.8213 63.1595 27.5432C63.6285 28.9494 64.0463 31.1151 64.1602 33.6505C64.389 38.7438 63.3826 45.0548 59.4371 49.5885L60.9458 50.9014C65.3695 45.8182 66.3981 38.9021 66.1582 33.5607C66.0377 30.8788 65.5952 28.5252 65.0567 26.9105C64.7938 26.122 64.4802 25.4238 64.1148 24.9568C63.9404 24.734 63.665 24.4466 63.2709 24.3138C63.0554 24.2411 62.8055 24.2161 62.5455 24.278C62.2891 24.339 62.0838 24.4701 61.9295 24.6157L63.3017 26.0707ZM59.4371 49.5885C57.4926 51.8228 54.387 53.732 50.6296 55.1276C46.8848 56.5185 42.5638 57.3724 38.2648 57.5461C29.5732 57.8972 21.3892 55.4734 17.9306 49.6476L16.2108 50.6686C20.2522 57.4759 29.444 59.904 38.3455 59.5445C42.843 59.3628 47.3729 58.4708 51.3259 57.0025C55.2663 55.5389 58.7056 53.4755 60.9458 50.9014L59.4371 49.5885ZM17.9306 49.6476C14.3301 43.5827 14.3404 38.106 15.6358 34.0759C16.2872 32.0493 17.2642 30.3872 18.2754 29.1977C19.3146 27.9751 20.2944 27.36 20.9069 27.2257L20.4784 25.2721C19.2437 25.543 17.9096 26.5399 16.7515 27.9024C15.5653 29.2979 14.4615 31.1936 13.7317 33.4639C12.2648 38.0276 12.3114 44.1002 16.2108 50.6686L17.9306 49.6476Z" fill="#1B1A19" mask="url(#path-2-inside-2_15_1221)"/>
<path d="M38.3571 56.6152C38.9272 56.5923 39.3401 56.6025 39.5866 56.6515C39.6499 56.6641 39.7318 56.6847 39.8112 56.7233C39.8667 56.7503 40.0589 56.851 40.1184 57.0904C40.1868 57.3656 40.0231 57.5549 39.9608 57.6149C39.8888 57.6841 39.8085 57.7274 39.7564 57.7526C39.5507 57.852 39.211 57.9345 38.8275 58.0011C38.7762 58.01 38.7232 58.0188 38.6686 58.0274C40.2155 57.9507 41.7658 57.7874 43.2925 57.543C50.2275 56.4328 56.5455 53.6717 59.8128 49.9167L59.8129 49.9167C63.8779 45.2456 64.8902 38.7834 64.6588 33.628C64.5434 31.056 64.1194 28.8434 63.633 27.3851C63.3866 26.6465 63.138 26.1437 62.9325 25.8813C62.9041 25.845 62.8796 25.8173 62.8592 25.7962C62.7001 25.9363 62.5151 26.0784 62.3114 26.22C62.2706 26.2711 62.2293 26.3226 62.1877 26.3742C62.3061 26.4003 62.4124 26.4685 62.4854 26.5685C62.555 26.6637 62.5729 26.758 62.5787 26.8049C62.5895 26.8937 62.5736 26.9646 62.5695 26.983L62.5694 26.9836C62.5628 27.0129 62.5548 27.0374 62.5494 27.0532C62.5166 27.1476 62.4347 27.3115 62.2995 27.5656C62.1926 27.7664 62.0411 28.0437 61.8298 28.4229C61.8419 28.4162 61.8539 28.4095 61.8658 28.403C62.0285 28.3136 62.1887 28.2359 62.3349 28.1844C62.4528 28.1428 62.6675 28.0775 62.8841 28.1359C63.0181 28.172 63.1595 28.2581 63.2497 28.4136C63.3319 28.5556 63.339 28.6999 63.3308 28.799C63.3154 28.9849 63.2321 29.1735 63.1448 29.3369M63.1448 29.3369L62.7225 29.1114M63.1448 29.3369C63.1449 29.3368 63.145 29.3366 63.1451 29.3364L62.7225 29.1114M63.1448 29.3369C62.9105 29.7765 62.3611 30.3441 61.6376 30.8979C60.8974 31.4646 59.925 32.0551 58.7906 32.522C56.5223 33.4555 53.5672 33.9088 50.5301 32.6312C47.6664 31.4265 45.7898 30.8703 43.8231 30.7948C41.8437 30.7187 39.7346 31.1272 36.3923 31.9371C32.9984 32.7595 30.4821 32.7641 28.7982 32.554C27.9568 32.449 27.3252 32.2907 26.8977 32.1553C26.684 32.0877 26.5215 32.0258 26.4095 31.9794C26.3535 31.9561 26.3101 31.9367 26.2792 31.9224C26.2638 31.9152 26.2515 31.9093 26.2423 31.9049L26.2309 31.8992L26.2269 31.8972L26.2254 31.8964L26.2247 31.8961C26.2244 31.8959 26.2241 31.8958 26.4528 31.4511C26.4528 31.4511 29.5982 33.0689 36.2745 31.4511C42.9508 29.8334 44.9624 29.7465 50.724 32.1703C56.4617 34.5841 61.9272 30.5082 62.6945 29.1185C62.7074 29.1146 62.716 29.1125 62.7208 29.1116C62.7214 29.1115 62.722 29.1114 62.7225 29.1114M62.7225 29.1114C62.7225 29.1114 62.7225 29.1114 62.7225 29.1114M62.7225 29.1114L62.7223 29.1113C62.7223 29.1113 62.7223 29.1113 62.7223 29.1113L62.7225 29.1114M22.9503 54.6915C23.5087 55.0837 24.1744 55.5324 24.8513 55.9444C24.4159 55.76 23.9912 55.5631 23.5782 55.3534C23.3522 55.2175 23.14 54.9792 22.9503 54.6915ZM32.4709 57.8489C31.0567 57.6893 29.6782 57.4448 28.3581 57.1106C28.4437 57.0068 28.4853 56.8775 28.4831 56.7493C28.4806 56.6083 28.4267 56.4979 28.3936 56.4392C28.3237 56.3153 28.2148 56.1971 28.1072 56.0935C27.8803 55.8748 27.5195 55.5899 27.0272 55.2424C26.9177 55.1651 26.8189 55.0904 26.7304 55.0191C26.7696 55.0366 26.81 55.0552 26.8517 55.0748C27.4401 55.3518 28.2531 55.823 29.3143 56.5551C30.2357 57.1907 31.3423 57.5973 32.4709 57.8489Z" fill="#DCC600" stroke="#1B1A19"/>
<path d="M35.7015 26.9382C35.8362 26.9376 35.9907 26.9376 36.1635 26.9388C36.8534 26.9437 37.8354 26.9675 39.0081 27.0432C41.3504 27.1945 44.4671 27.5539 47.5403 28.3896L35.7015 26.9382ZM35.7015 26.9382C35.7608 26.7092 35.8307 26.5003 35.9091 26.31C38.2527 26.3491 42.4458 26.6327 47.2796 27.9309L47.2799 27.931C48.6254 28.2915 49.9242 28.5086 51.1611 28.6129C49.9897 28.7611 48.7657 28.7222 47.5405 28.3896L35.7015 26.9382ZM18.5143 50.8339L18.5143 50.8339L17.94 50.5913C17.9205 50.5628 17.901 50.5343 17.8817 50.5056C17.925 50.4894 17.969 50.4659 18.0129 50.4332C18.1928 50.299 18.2188 50.1045 18.224 50.0651L18.2242 50.0638C18.2334 49.9949 18.2304 49.931 18.227 49.8879C18.2198 49.7976 18.201 49.6933 18.1796 49.5916C18.1359 49.3835 18.0641 49.1055 17.984 48.7998C17.9724 48.7558 17.9607 48.711 17.9487 48.6655C17.8189 48.1711 17.6682 47.5968 17.5479 47.0347C17.8134 47.7652 18.1471 48.6025 18.5755 49.3966C18.9763 50.1398 19.4717 50.8678 20.0918 51.4385C19.8034 51.3394 19.5111 51.2304 19.2553 51.1315C19.0407 51.0486 18.8548 50.9739 18.7227 50.92C18.6567 50.8931 18.6042 50.8714 18.5684 50.8565L18.5276 50.8395L18.5174 50.8352L18.5149 50.8342L18.5144 50.8339L18.5143 50.8339ZM18.0053 49.6516L18.0053 49.6516C18.0051 49.6513 18.0058 49.6521 18.0055 49.6517L18.0054 49.6517C18.0054 49.6517 18.0054 49.6516 18.0053 49.6516ZM15.0213 44.1542C14.503 42.25 14.3071 40.44 14.3482 38.7567C14.3813 39.1558 14.4184 39.5684 14.4602 39.9895C14.5941 41.3403 14.7756 42.7848 15.0213 44.1542Z" fill="white" stroke="#1B1A19"/>
<path d="M38.6994 16.528C38.6994 24.5941 32.1676 31.132 24.1112 31.132C16.0549 31.132 9.52301 24.5941 9.52301 16.528C9.52301 8.46201 16.0549 1.92409 24.1112 1.92409C32.1676 1.92409 38.6994 8.46201 38.6994 16.528Z" fill="#FAFF00" stroke="#1B1A19"/>
<mask id="path-7-inside-3_15_1221" fill="white">
<path d="M9.02301 16.5281C9.02301 16.914 9.03724 17.2956 9.06569 17.6744C9.06853 17.6531 10.1284 7.69439 17.6654 3.93477C25.2109 0.170887 31.772 3.51324 31.772 3.51324C29.5271 2.18598 26.9081 1.42409 24.1112 1.42409C15.779 1.42409 9.02301 8.1857 9.02301 16.5281Z"/>
</mask>
<path d="M9.02301 16.5281C9.02301 16.914 9.03724 17.2956 9.06569 17.6744C9.06853 17.6531 10.1284 7.69439 17.6654 3.93477C25.2109 0.170887 31.772 3.51324 31.772 3.51324C29.5271 2.18598 26.9081 1.42409 24.1112 1.42409C15.779 1.42409 9.02301 8.1857 9.02301 16.5281Z" fill="white"/>
<path d="M9.06569 17.6744L8.0685 17.7493L10.0569 17.8065L9.06569 17.6744ZM17.6654 3.93477L18.1117 4.82962L18.1117 4.82962L17.6654 3.93477ZM31.772 3.51324L31.3181 4.40428L32.2809 2.65244L31.772 3.51324ZM24.1112 1.42409V2.42409V1.42409ZM8.02301 16.5281C8.02301 16.9386 8.03815 17.3453 8.0685 17.7493L10.0629 17.5996C10.0363 17.246 10.023 16.8893 10.023 16.5281H8.02301ZM10.0569 17.8065C10.0581 17.7977 10.1202 17.2102 10.3276 16.2608C10.536 15.3072 10.8891 14 11.4663 12.5839C12.6278 9.73418 14.6491 6.55686 18.1117 4.82962L17.219 3.03992C13.1446 5.0723 10.8675 8.75414 9.6142 11.829C8.98394 13.3752 8.6004 14.7967 8.37376 15.8338C8.26024 16.3532 8.18558 16.7786 8.13885 17.0779C8.09266 17.3738 8.07167 17.5633 8.07444 17.5424L10.0569 17.8065ZM18.1117 4.82962C21.6642 3.05759 24.9773 2.95916 27.4083 3.30271C28.6253 3.4747 29.6178 3.75729 30.3009 3.99447C30.642 4.11293 30.9046 4.21961 31.0781 4.29468C31.1647 4.3322 31.229 4.36176 31.2695 4.38088C31.2897 4.39044 31.304 4.39737 31.3121 4.40138C31.3162 4.40338 31.3188 4.40465 31.3198 4.40515C31.3203 4.4054 31.3204 4.40546 31.3201 4.40531C31.3199 4.40524 31.3197 4.40512 31.3194 4.40495C31.3192 4.40486 31.3189 4.4047 31.3188 4.40465C31.3184 4.40448 31.3181 4.40428 31.772 3.51324C32.2259 2.6222 32.2255 2.62198 32.225 2.62175C32.2248 2.62166 32.2243 2.62141 32.224 2.62123C32.2232 2.62085 32.2224 2.62043 32.2215 2.61995C32.2196 2.61901 32.2173 2.61786 32.2146 2.61651C32.2092 2.61383 32.2023 2.61036 32.1937 2.60615C32.1766 2.59774 32.1531 2.58637 32.1234 2.57237C32.0641 2.54436 31.98 2.50579 31.8726 2.45927C31.6577 2.36626 31.3488 2.24123 30.9569 2.10514C30.174 1.83326 29.0546 1.5155 27.6882 1.32239C24.9522 0.935734 21.2121 1.04807 17.219 3.03992L18.1117 4.82962ZM32.2809 2.65244C29.8862 1.23658 27.092 0.424091 24.1112 0.424091V2.42409C26.7241 2.42409 29.168 3.13538 31.263 4.37404L32.2809 2.65244ZM24.1112 0.424091C15.2258 0.424091 8.02301 7.63434 8.02301 16.5281H10.023C10.023 8.73706 16.3322 2.42409 24.1112 2.42409V0.424091Z" fill="#1B1A19" mask="url(#path-7-inside-3_15_1221)"/>
<path d="M17.886 26.0643L17.8863 26.0639C17.9794 25.9018 18.1425 25.6663 18.3245 25.4034C18.3627 25.3482 18.4017 25.2918 18.4411 25.2347C18.6778 24.8912 18.9513 24.487 19.2124 24.0515C19.7483 23.1577 20.1772 22.219 20.1928 21.4608L20.6927 21.4711L20.1928 21.4608C20.1931 21.4466 20.1934 21.4327 20.1936 21.4191C20.0185 21.4639 19.8066 21.4911 19.556 21.4713C19.1121 21.4362 18.5928 21.2575 17.974 20.8507C16.9764 20.195 15.813 20.1138 14.6003 20.2009C14.1806 20.231 13.775 20.2792 13.3713 20.3272C13.1866 20.3491 13.0023 20.371 12.8171 20.3911C12.2462 20.4531 11.6714 20.4973 11.1532 20.4416M17.886 26.0643L11.2067 19.9445M17.886 26.0643C17.6836 26.4172 17.7151 26.8403 17.9071 27.2069C18.0987 27.5726 18.4527 27.9008 18.9507 28.1589C19.9439 28.6737 21.6046 28.9627 24.1656 28.6827C26.8046 28.3943 30.1361 26.8706 32.6825 24.1802C35.2427 21.4752 37.0181 17.5806 36.4987 12.5702M17.886 26.0643L9.29901 19.4104C9.33726 19.6085 9.37938 19.8052 9.42528 20.0005C9.61539 20.073 9.80363 20.1373 9.98777 20.1933M11.1532 20.4416L11.2067 19.9445M11.1532 20.4416C11.1533 20.4416 11.1534 20.4416 11.1535 20.4416L11.2067 19.9445M11.1532 20.4416C10.8034 20.4041 10.4062 20.3204 9.98777 20.1933M11.2067 19.9445C10.8171 19.9027 10.3496 19.7953 9.85294 19.6239C9.89417 19.8151 9.93914 20.0049 9.98777 20.1933M9.98777 20.1933C11.6122 26.4845 17.3201 31.1306 24.1112 31.1306C32.1682 31.1306 38.6994 24.5919 38.6994 16.5266C38.6994 12.1789 36.8004 8.27481 33.7875 5.59973C35.1208 7.27925 36.1849 9.54003 36.4987 12.5702M36.4987 12.5702L36.0014 12.6218M36.4987 12.5702L36.0014 12.6218M36.0014 12.6218C37.0072 22.3255 29.1402 27.636 24.1112 28.1857C19.0823 28.7354 17.9229 27.0051 18.3198 26.313L31.1012 3.70756C33.3212 5.34148 35.5314 8.08403 36.0014 12.6218ZM20.6962 21.2202C20.6962 21.2198 20.6962 21.2195 20.6963 21.2191L20.6962 21.2202Z" fill="#DCC600" stroke="#1B1A19"/>
<path d="M6.62529 21.4908L6.62546 21.4907L6.62572 21.4906L6.62594 21.4904L6.64662 21.4801L6.66699 21.4673L6.40108 21.0439C6.66699 21.4673 6.66708 21.4672 6.66717 21.4672L6.66739 21.467L6.66799 21.4667L6.66981 21.4655L6.67589 21.4617L6.69757 21.4478C6.71617 21.4358 6.74297 21.4184 6.77729 21.3957C6.84591 21.3503 6.94466 21.2838 7.06815 21.1972C7.315 21.0243 7.66133 20.7711 8.06376 20.4472C8.86664 19.8009 9.90242 18.8655 10.8168 17.7167C11.2546 17.1667 11.641 16.7188 12.0026 16.3776C12.3652 16.0353 12.6798 15.8229 12.9687 15.7164C13.4768 15.5293 14.0637 15.6164 14.9741 16.4141C15.6736 17.0275 16.2587 17.6876 16.8132 18.3131C17.0105 18.5357 17.2039 18.7539 17.3972 18.9641C17.7563 19.3545 18.1187 19.7197 18.4928 20.0008C18.8679 20.2826 19.2836 20.502 19.7504 20.5628C20.0197 20.5978 20.108 20.6789 20.1376 20.7175C20.1691 20.7587 20.2085 20.8493 20.1864 21.049C20.1395 21.4725 19.8488 22.0895 19.3959 22.7846C18.6064 23.9966 15.8175 26.032 10.3251 25.7921L10.325 25.7921C7.56336 25.6722 5.91488 25.0873 5.09513 24.4668C4.68809 24.1586 4.51958 23.8692 4.47336 23.6546C4.4307 23.4566 4.47849 23.2657 4.63991 23.0846C5.12693 22.541 5.62919 22.1389 6.00939 21.8733C6.19909 21.7408 6.35715 21.6431 6.46594 21.5794C6.5203 21.5476 6.56223 21.5244 6.58953 21.5097C6.60317 21.5023 6.61315 21.4971 6.61917 21.4939L6.6251 21.4909L6.62521 21.4908L6.62529 21.4908Z" fill="#FFE600" stroke="#1B1A19"/>
<path d="M9.77948 26.1453C11.2018 26.1711 12.8977 25.9741 14.5926 25.2435C15.1135 25.0191 15.5532 24.8136 15.9244 24.6267L9.77948 26.1453ZM9.77948 26.1453C9.78536 26.145 9.79124 26.1447 9.79713 26.1444C11.3127 26.0645 13.1111 25.8225 14.5622 25.173C14.5622 25.173 14.5622 25.173 14.5622 25.173C14.9859 24.9834 15.3801 24.759 15.7289 24.4937L9.77948 26.1453ZM19.75 20.5641L19.7505 20.5642C20.0198 20.5992 20.1081 20.6803 20.1377 20.719C20.1693 20.7602 20.2087 20.8509 20.1867 21.0508C20.1399 21.4745 19.8495 22.0917 19.3974 22.7875C19.1727 23.1327 18.7852 23.5461 18.2163 23.955C18.256 23.8978 18.2921 23.8376 18.3218 23.7749C18.3828 23.6458 18.4474 23.438 18.3711 23.2097L18.1985 21.5681L17.4313 23.0368C17.4314 23.0368 17.4313 23.0368 17.4312 23.037C17.4272 23.0434 17.3264 23.2028 16.8762 23.5075C16.8287 23.5397 16.7778 23.5732 16.7231 23.608C17.5183 22.7559 17.872 21.8886 17.8782 20.9658C17.8825 20.3165 17.7115 19.6704 17.4538 19.0262C17.7942 19.3932 18.1379 19.735 18.4922 20.0013C18.8673 20.2834 19.2831 20.503 19.75 20.5641Z" fill="#F1F516" stroke="#1B1A19"/>
<path d="M37.8149 33.9909L37.7721 33.9937C35.6925 34.1283 33.5645 35.3471 31.9331 37.1333C30.3032 38.918 29.2282 41.2054 29.1848 43.3905L37.8149 33.9909ZM37.8149 33.9909L37.8562 33.981M37.8149 33.9909L37.8562 33.981M37.8562 33.981L37.8563 33.981M37.8562 33.981L37.8563 33.981M37.8563 33.981L37.8563 33.981M37.8563 33.981L37.8563 33.981M37.8563 33.981L37.8566 33.9809M37.8563 33.981L37.8566 33.9809M37.8566 33.9809L37.8576 33.9807L37.8651 33.9789L37.8994 33.9712C37.9307 33.9644 37.9787 33.9542 38.0421 33.9417C38.1691 33.9166 38.3581 33.8823 38.6004 33.8464C39.0854 33.7745 39.7824 33.6966 40.6223 33.6743C42.3052 33.6297 44.5429 33.809 46.7941 34.6921C49.1315 35.6098 51.0059 36.2233 52.564 36.4495C54.1357 36.6776 55.4263 36.5175 56.5593 35.8477L56.5596 35.8475C56.7801 35.717 56.923 35.6737 57.0031 35.6654C57.0394 35.6616 57.0555 35.6657 57.0587 35.6667C57.0605 35.6672 57.0623 35.6675 57.0676 35.6722C57.0835 35.6861 57.1335 35.7436 57.1804 35.909C57.2261 36.0703 57.2575 36.2948 57.2682 36.5909C57.3116 37.7965 57.0043 39.7983 56.5439 42.3787C56.0955 44.8915 55.185 47.5415 53.1742 49.671C51.1712 51.7922 48.0253 53.4507 42.9998 53.8895C38.0121 54.325 34.5474 52.7832 32.3393 50.614C30.1159 48.4297 29.142 45.5867 29.1848 43.3907L37.8566 33.9809Z" fill="#FAFF00" stroke="#1B1A19"/>
<path d="M39.8603 53.1313C41.0445 53.0726 42.4275 52.8763 43.9977 52.4507C44.7099 52.2577 45.2606 52.0971 45.6748 51.962C46.0798 51.8299 46.3836 51.713 46.5822 51.6025C46.672 51.5525 46.8013 51.4717 46.8927 51.3465C46.9437 51.2768 47.0012 51.1683 47.0078 51.027C47.0148 50.8775 46.9619 50.7515 46.8939 50.6609C46.7818 50.5116 46.621 50.4471 46.5504 50.4207C46.4574 50.386 46.3537 50.3604 46.2552 50.34C46.0572 50.2992 45.8071 50.2652 45.554 50.2317C45.5303 50.2286 45.5064 50.2254 45.4824 50.2223C45.2435 50.1907 44.9942 50.1577 44.747 50.1171C44.5016 50.0768 44.2688 50.0305 44.0633 49.9743C44.0636 49.9743 44.0638 49.9742 44.0641 49.9742C45.1061 49.7751 46.8381 49.3956 48.8742 48.2105C50.915 47.0228 52.0937 45.6585 52.7633 44.5739C53.0973 44.0329 53.3032 43.5641 53.4266 43.2249C53.4883 43.0554 53.5294 42.9182 53.5556 42.8205C53.5687 42.7716 53.5781 42.7326 53.5845 42.7043C53.5877 42.6902 53.5901 42.6788 53.5919 42.6701L53.5941 42.6592L53.5949 42.6554L53.5952 42.6539L53.5953 42.6532C53.5953 42.6529 53.5954 42.6526 53.104 42.5605L53.5954 42.6526L52.7086 42.2551C52.7083 42.2549 52.7083 42.2549 52.7083 42.2548L52.7083 42.2549L52.7082 42.2549L52.7078 42.2555L52.7051 42.2589L52.6933 42.274C52.6826 42.2875 52.6664 42.308 52.6451 42.3345C52.6025 42.3875 52.5398 42.4644 52.4605 42.5582C52.386 42.6463 52.2974 42.7488 52.1978 42.86C52.7343 42.1413 53.2868 41.3163 53.6524 40.4882L53.6525 40.488C53.8013 40.1506 53.8927 39.8405 53.8989 39.5618C53.9054 39.2653 53.8133 38.981 53.5793 38.7767C53.3665 38.5909 53.1021 38.5308 52.886 38.512C52.6635 38.4927 52.4251 38.5117 52.2021 38.5418C52.0713 38.5594 51.9376 38.5821 51.8061 38.6063C51.8941 38.5014 51.9671 38.3693 51.9987 38.2076C52.0404 37.994 51.9987 37.7858 51.9151 37.5972C51.878 37.5134 51.8303 37.44 51.7761 37.3756C51.9128 37.3803 52.0505 37.3827 52.1892 37.3827C54.3021 37.3827 55.4959 37.0759 56.1923 36.8558C56.2772 36.829 56.3536 36.8038 56.4207 36.7816L56.4337 36.7773C56.4575 36.7694 56.4798 36.7621 56.5008 36.7552C56.7138 38.0461 57.1696 43.9289 52.3671 49.2536C49.8317 52.0645 46.2962 53.1716 43.0022 53.3002C41.9002 53.3432 40.8374 53.2764 39.8603 53.1313ZM56.4494 36.5118C56.4494 36.5118 56.45 36.513 56.451 36.5158C56.4499 36.5133 56.4494 36.5119 56.4494 36.5118ZM50.4773 38.7973C50.4775 38.7971 50.4799 38.7976 50.4842 38.7991C50.4793 38.7981 50.4772 38.7974 50.4773 38.7973ZM50.5102 39.2488C50.5079 39.2506 50.5065 39.2514 50.5065 39.2514C50.5064 39.2514 50.5076 39.2505 50.5102 39.2488ZM46.2136 51.3632C46.2133 51.3633 46.2095 51.3618 46.2033 51.3585C46.2108 51.3614 46.2139 51.3631 46.2136 51.3632Z" fill="#DCC600" stroke="#1B1A19"/>
<path d="M36.763 35.1191C36.3388 35.2758 35.9253 35.4595 35.5385 35.6753C34.6043 36.1964 33.7872 36.9265 33.3875 37.9494L36.763 35.1191ZM36.763 35.1191C35.4098 35.2987 34.3076 35.6496 33.4076 36.1665C31.5122 37.2549 30.4161 39.1385 29.8144 42.0122C29.3482 44.2384 29.7689 46.0039 30.4403 47.326C30.4457 47.2144 30.4586 47.1061 30.4789 47.0017C30.5946 46.407 30.9678 45.9163 31.5878 45.7561C32.1699 45.6057 32.8525 45.7789 33.5603 46.2012C33.5728 46.2087 33.5853 46.2162 33.5977 46.2236C33.3642 45.9986 33.1045 45.7456 32.8163 45.4613M36.763 35.1191L32.8163 45.4613M32.8163 45.4613C32.2813 44.9339 31.8926 44.4491 31.6407 44.034C31.5149 43.8266 31.4179 43.6278 31.3556 43.4427C31.2958 43.2648 31.2555 43.0629 31.2839 42.8648C31.3152 42.6464 31.4377 42.4151 31.6943 42.2981C31.9177 42.1962 32.1498 42.2258 32.3221 42.2754C32.6705 42.3757 33.0734 42.6434 33.5026 43.0311C33.9427 43.4286 34.3145 43.6457 34.611 43.7613C34.3762 43.4868 34.122 43.1518 33.8873 42.7639C33.1773 41.5912 32.626 39.8963 33.3875 37.9496L32.8163 45.4613Z" fill="white" stroke="#1B1A19"/>
<path d="M24.9727 15.0142C24.9727 16.0599 24.126 16.9067 23.0827 16.9067C22.0394 16.9067 21.1927 16.0599 21.1927 15.0142C21.1927 13.9686 22.0394 13.1218 23.0827 13.1218C24.126 13.1218 24.9727 13.9686 24.9727 15.0142Z" fill="#E59A08" stroke="#1B1A19"/>
<path d="M24.9406 14.6654C24.9617 14.7784 24.9727 14.895 24.9727 15.0142C24.9727 16.0601 24.1262 16.9067 23.0827 16.9067C22.8519 16.9067 22.6307 16.8653 22.4262 16.7895C22.5277 16.8022 22.6328 16.8087 22.7412 16.8087C23.4504 16.8087 24.0157 16.5272 24.3969 16.0829C24.7415 15.6811 24.9164 15.1699 24.9406 14.6654Z" fill="#E59A08" stroke="#1B1A19"/>
<path d="M22.9923 13.9035C22.9923 14.0997 22.8336 14.2579 22.6388 14.2579C22.444 14.2579 22.2852 14.0997 22.2852 13.9035C22.2852 13.7072 22.444 13.549 22.6388 13.549C22.8336 13.549 22.9923 13.7072 22.9923 13.9035Z" fill="white" stroke="#1B1A19"/>
<path d="M104.821 23.4938V23.9938H105.321H107.723H108.223V23.4938V17.2479L110.168 15.0572L116.695 23.7931L116.845 23.9938H117.095H120H121.011L120.397 23.1902L112.327 12.6309L120.366 3.98397L121.148 3.14351H120H116.863H116.641L116.492 3.3081L108.223 12.4499V3.64351V3.14351H107.723H105.321H104.821V3.64351V23.4938Z" fill="#371F1F" stroke="#1B1A19"/>
<path d="M96.4373 23.8039C97.3745 23.4956 98.2233 23.0455 98.9803 22.4531L98.9825 22.4513C99.7416 21.8503 100.375 21.1221 100.883 20.2702C101.395 19.412 101.743 18.446 101.934 17.3783L102.038 16.7906H101.441H99.04H98.6331L98.5504 17.1891C98.4202 17.817 98.1949 18.3632 97.8791 18.8345L97.8783 18.8357C97.5628 19.3094 97.1789 19.708 96.7253 20.0342C96.2749 20.3561 95.7734 20.6003 95.2178 20.766C94.6592 20.9326 94.0749 21.0166 93.4629 21.0166C92.3516 21.0166 91.3566 20.7369 90.4651 20.1815C89.5881 19.6312 88.8758 18.8136 88.3361 17.7031C87.8093 16.6059 87.5338 15.2343 87.5338 13.5687C87.5338 11.903 87.8093 10.5314 88.3361 9.43421C88.8757 8.32381 89.588 7.50617 90.4651 6.95583C91.3565 6.40045 92.3516 6.12079 93.4629 6.12079C94.0749 6.12079 94.6592 6.20477 95.2178 6.37133C95.7719 6.53654 96.2723 6.7831 96.7221 7.11058L96.7221 7.11062L96.7281 7.11484C97.1802 7.43397 97.5632 7.82851 97.8783 8.30169L97.8783 8.3017L97.8807 8.30522C98.1947 8.76819 98.4199 9.3129 98.5502 9.94733L98.6323 10.3467H99.04H101.441H102.038L96.2805 23.3291M96.4373 23.8039C96.4371 23.8039 96.4369 23.804 96.4367 23.804L96.2805 23.3291M96.4373 23.8039C96.4374 23.8038 96.4376 23.8038 96.4377 23.8037L96.2805 23.3291M96.4373 23.8039C95.5048 24.1126 94.5123 24.2652 93.4629 24.2652C91.6862 24.2652 90.0884 23.8295 88.685 22.948C87.2828 22.0672 86.187 20.818 85.3948 19.2184C84.5985 17.6104 84.21 15.7218 84.21 13.5687C84.21 11.4155 84.5985 9.52695 85.3948 7.91895C86.187 6.31937 87.2828 5.07011 88.685 4.18936C90.0884 3.30785 91.6862 2.87212 93.4629 2.87212C94.5123 2.87212 95.5047 3.02468 96.4371 3.33345M96.2805 23.3291C95.4027 23.6198 94.4635 23.7652 93.4629 23.7652C91.7717 23.7652 90.2677 23.3517 88.9509 22.5246C87.6341 21.6975 86.5981 20.5215 85.8429 18.9965C85.0876 17.4715 84.71 15.6623 84.71 13.5687C84.71 11.4751 85.0876 9.66581 85.8429 8.14085C86.5981 6.61589 87.6341 5.43986 88.9509 4.61277C90.2677 3.78567 91.7717 3.37212 93.4629 3.37212C94.4635 3.37212 95.4027 3.51751 96.2805 3.80829M96.4371 3.33345C96.437 3.3334 96.4369 3.33335 96.4367 3.3333L96.2805 3.80829M96.4371 3.33345C96.4373 3.33351 96.4375 3.33358 96.4377 3.33364L96.2805 3.80829M96.4371 3.33345L96.2805 3.80829M101.441 17.2906C101.411 17.4603 101.377 17.6269 101.338 17.7906H101.441V17.2906ZM101.441 17.2906L100.949 17.2029C100.944 17.2322 100.938 17.2615 100.933 17.2906H101.441ZM101.441 9.84674H100.933C100.938 9.87568 100.944 9.90474 100.949 9.9339L101.441 9.84674ZM101.441 9.84674V9.34674H101.339C101.377 9.51028 101.411 9.67694 101.441 9.84674ZM98.9814 4.69482C98.981 4.69453 98.9806 4.69424 98.9802 4.69395L98.6721 5.0877L98.9825 4.69569C98.9821 4.6954 98.9817 4.69511 98.9814 4.69482ZM100.883 6.86634C100.883 6.86608 100.882 6.86583 100.882 6.86557L100.454 7.12313L100.883 6.8671C100.883 6.86685 100.883 6.86659 100.883 6.86634Z" fill="#371F1F" stroke="#1B1A19"/>
<path d="M77.7881 3.14351H78.2881H80.6893H81.1893V3.64351V16.7866C81.1893 18.2255 80.8494 19.5275 80.1596 20.6784M77.7881 3.14351L79.7308 20.4213M77.7881 3.14351V3.64351V16.5927C77.7881 17.4863 77.5925 18.2626 77.2134 18.9352L77.2127 18.9364C76.8419 19.599 76.3059 20.1244 75.5907 20.5147M77.7881 3.14351L77.649 19.1807M80.1596 20.6784L79.7308 20.4213M80.1596 20.6784C80.1598 20.6781 80.1599 20.6778 80.1601 20.6776L79.7308 20.4213M80.1596 20.6784C79.4774 21.8209 78.514 22.7194 77.2833 23.3732L77.2814 23.3742C76.0417 24.026 74.6033 24.3428 72.9821 24.3428C71.3609 24.3428 69.9226 24.026 68.6828 23.3742L68.6809 23.3732C67.4503 22.7194 66.4841 21.8212 65.7956 20.6795L65.7938 20.6764C65.1111 19.5258 64.7749 18.2246 64.7749 16.7866V3.64351V3.14351H65.2749H67.6761H68.1761V3.64351V16.5927C68.1761 17.4859 68.3716 18.262 68.7504 18.9344M79.7308 20.4213C79.0982 21.481 78.2042 22.3178 77.0487 22.9317C75.8933 23.5391 74.5378 23.8428 72.9821 23.8428C71.4265 23.8428 70.0709 23.5391 68.9155 22.9317C67.7601 22.3178 66.8628 21.481 66.2238 20.4213C65.5912 19.3551 65.2749 18.1436 65.2749 16.7866V4.14351V3.64351H65.7749H67.1761H67.6761V4.14351V16.5927C67.6761 17.562 67.8892 18.4246 68.3152 19.1807M68.7504 18.9344C68.7502 18.9342 68.75 18.9339 68.7499 18.9336L68.3152 19.1807M68.7504 18.9344C68.7505 18.9347 68.7506 18.9349 68.7508 18.9352L68.3152 19.1807M68.7504 18.9344C69.1283 19.5991 69.6655 20.125 70.3743 20.5151M68.3152 19.1807C68.7412 19.9302 69.348 20.5215 70.1355 20.9544M70.1355 20.9544L70.3721 20.5139C70.3728 20.5143 70.3735 20.5147 70.3743 20.5151M70.1355 20.9544C70.9294 21.3809 71.8783 21.5941 72.9821 21.5941C74.0859 21.5941 75.0348 21.3809 75.8287 20.9544M70.1355 20.9544L70.3764 20.5162C70.3757 20.5159 70.375 20.5155 70.3743 20.5151M70.3743 20.5151C71.0805 20.8939 71.9436 21.0941 72.9821 21.0941C74.021 21.0941 74.8844 20.8937 75.5907 20.5147M75.8287 20.9544L75.5894 20.5154C75.5898 20.5152 75.5903 20.5149 75.5907 20.5147M75.8287 20.9544C76.6227 20.5215 77.2295 19.9302 77.649 19.1807M75.8287 20.9544L75.5921 20.5139C75.5917 20.5142 75.5912 20.5144 75.5907 20.5147M77.649 19.1807C78.0751 18.4246 78.2881 17.562 78.2881 16.5927V4.14351V3.64351L77.649 19.1807Z" fill="#371F1F" stroke="#1B1A19"/>
<path d="M48.579 20.8615V21.3615H51.6421C53.2817 21.3615 54.6404 21.0449 55.7184 20.4116C56.7964 19.7784 57.6 18.877 58.1293 17.7074C58.6586 16.5378 58.9233 15.1453 58.9233 13.5299C58.9233 11.9274 58.6619 10.5478 58.139 9.39119C57.6162 8.22809 56.8351 7.33637 55.7959 6.71605C54.7566 6.08926 53.4624 5.77587 51.9132 5.77587H48.579V6.27587M48.579 20.8615H51.6421C53.2196 20.8615 54.4843 20.5567 55.4652 19.9805C56.4516 19.401 57.1859 18.5794 57.6738 17.5012C58.1673 16.4109 58.4233 15.092 58.4233 13.5299C58.4233 11.9804 58.1704 10.6744 57.6834 9.59714L57.683 9.59619C57.1998 8.52126 56.486 7.71026 55.5396 7.14538L55.5376 7.14421C54.5951 6.57576 53.3962 6.27587 51.9132 6.27587H48.579M48.579 20.8615H48.079V6.27587H48.579M48.579 20.8615V6.27587M45.1777 23.4938V23.9938H45.6777H51.797C53.8762 23.9938 55.6761 23.5834 57.1746 22.737L57.1761 22.7362C58.6721 21.8843 59.8124 20.6655 60.5914 19.0924L60.5918 19.0916C61.3687 17.5155 61.7471 15.6561 61.7471 13.5299C61.7471 11.4172 61.3722 9.57367 60.6013 8.0165C59.8303 6.45247 58.7144 5.2429 57.2565 4.40289C55.7971 3.55546 54.0606 3.14351 52.0681 3.14351H45.6777H45.1777V3.64351V23.4938Z" fill="#371F1F" stroke="#1B1A19"/>
<path d="M10.5965 14.1313C10.5965 16.7204 8.36395 18.868 5.54826 18.868C2.73256 18.868 0.5 16.7204 0.5 14.1313C0.5 11.5421 2.73256 9.39461 5.54826 9.39461C8.36395 9.39461 10.5965 11.5421 10.5965 14.1313Z" fill="url(#paint0_linear_15_1221)" stroke="#1B1A19"/>
<path d="M16.9619 16.1942C16.133 15.7485 14.2294 15.1064 13.3952 15.1628C12.5609 15.2191 10.9992 15.7954 10.304 16.1942" stroke="#1B1A19"/>
<path d="M17.4375 12.227H9.98694" stroke="#1B1A19"/>
<path d="M38.5829 12.4905C38.8538 12.4368 39.0299 12.1737 38.9762 11.9028C38.9226 11.632 38.6595 11.4559 38.3886 11.5095L38.5829 12.4905ZM27.8924 14.6081L38.5829 12.4905L38.3886 11.5095L27.6981 13.6272L27.8924 14.6081Z" fill="#1B1A19"/>
<path d="M95.9459 50.6176H96.5457H96.7083H97.0679L97.1823 50.2767L103.815 30.512L104.037 29.8529H103.341H99.8215H99.4499L99.3428 30.2087L95.1224 44.2168L90.9355 30.2097L90.8288 29.8529H90.4564H86.9493H86.2549L86.4751 30.5115L93.0827 50.2762L93.1969 50.6176H93.5569H93.7385H94.3321H95.9459Z" fill="#371F1F" stroke="#1B1A19"/>
<path d="M75.1943 29.8529H69.8445H69.3445V30.3529V33.0679V33.5679H69.8445H75.1943V50.1176V50.6176H75.6943H78.9097H79.4097V50.1176V33.5679H84.8112H85.3112V33.0679V30.3529V29.8529H84.8112H79.4097H78.9097H75.6943H75.1943Z" fill="#371F1F" stroke="#1B1A19"/>
<path d="M27.7169 14.766C27.7169 17.532 25.3408 19.8201 22.3516 19.8201C19.3624 19.8201 16.9863 17.532 16.9863 14.766C16.9863 12.0001 19.3624 9.71198 22.3516 9.71198C25.3408 9.71198 27.7169 12.0001 27.7169 14.766Z" fill="url(#paint1_linear_15_1221)" stroke="#1B1A19"/>
<defs>
<linearGradient id="paint0_linear_15_1221" x1="8.90874" y1="9.52941" x2="3.64021" y2="18.7497" gradientUnits="userSpaceOnUse">
<stop stop-color="#E5A708"/>
<stop offset="0.485" stop-color="#E56508"/>
<stop offset="1" stop-color="#FF5151"/>
</linearGradient>
<linearGradient id="paint1_linear_15_1221" x1="26.3699" y1="9.88235" x2="18.6232" y2="19.837" gradientUnits="userSpaceOnUse">
<stop stop-color="#E5A708"/>
<stop offset="0.449794" stop-color="#E56508"/>
<stop offset="1" stop-color="#FF5151"/>
</linearGradient>
</defs>
</svg>
